<?xml version="1.0" encoding="UTF-8"?>
<svg id="Ebene_2" xmlns="http://www.w3.org/2000/svg" xmlns:xlink="http://www.w3.org/1999/xlink" viewBox="0 0 1695.23 300.21">
  <defs>
    <style>
      .cls-1 {
        filter: url(#drop-shadow-1);
      }

      .cls-2 {
        fill: #df4a4a;
        stroke: #000;
        stroke-miterlimit: 10;
        stroke-width: 39px;
      }
    </style>
    <filter id="drop-shadow-1" x="41.35" y="47.99" width="1620" height="238" filterUnits="userSpaceOnUse">
      <feOffset dx="9" dy="10"/>
      <feGaussianBlur result="blur" stdDeviation="8"/>
      <feFlood flood-color="#000" flood-opacity=".48"/>
      <feComposite in2="blur" operator="in"/>
      <feComposite in="SourceGraphic"/>
    </filter>
  </defs>
  <g id="Normal">
    <g>
      <rect class="cls-2" x="19.5" y="19.5" width="1656.23" height="261.21" rx="102.49" ry="102.49"/>
      <g id="mtg1" class="cls-1">
        <path d="M56.6,207.6h36.11v-39.78c0-1.52.01-2.94.03-4.29h-36.14v44.07Z"/>
        <path d="M257.13,121.11c-8.36-8.77-20.2-12.44-40.19-12.44-23.66,0-35.5,5.71-41.61,20.2-7.75-14.28-20.6-20.2-43.86-20.2-21.42,0-33.66,5.3-38.96,16.93h-1.84v-14.48h-34.07v44.92h36.48c.61-7.58,2.07-11.46,4.94-14.32,4.08-4.08,11.22-5.92,22.03-5.92s16.73,1.63,19.99,5.3c2.9,3.07,3.66,5.43,3.83,14.94h36.54c.62-7.27,2.08-11,4.92-14.12,3.88-4.28,10.61-6.12,21.42-6.12s16.73,1.63,20.4,5.3c2.93,2.93,3.68,4.7,3.96,14.94h36.18c-.34-19.88-2.56-27.15-10.15-34.93Z"/>
        <path d="M143.91,207.6h36.11v-39.78c0-1.52.01-2.95.04-4.29h-36.14v44.07Z"/>
        <rect x="231.22" y="163.53" width="36.11" height="44.07"/>
        <rect x="293.53" y="71.53" width="36.11" height="27.13"/>
        <rect x="293.53" y="163.53" width="36.11" height="44.07"/>
        <rect x="293.53" y="111.11" width="36.11" height="44.92"/>
        <path d="M344.65,207.6h36.11v-38.55c0-2,.01-3.83.04-5.51h-36.14v44.07Z"/>
        <path d="M465,120.7c-8.57-8.77-20.4-12.04-43.45-12.04s-34.48,4.69-41,17.14h-1.84v-14.69h-34.07v44.92h36.42c.54-7.52,1.88-10.67,4.99-13.92,4.28-4.49,11.42-6.32,24.68-6.32s20.4,1.43,24.28,5.3c3.13,2.96,4.13,5.8,4.4,14.94h36.13c-.39-20.36-2.69-27.12-10.54-35.34Z"/>
        <path d="M439.5,163.53c0,.07,0,.14,0,.21v43.86h36.11v-43.86c0-.07,0-.14,0-.21h-36.11Z"/>
        <path d="M590.81,178.22c-4.08,2.86-13.87,4.49-27.13,4.49-24.69,0-30.29-2.71-31.1-19.18h-36.18c.34,20.54,2.97,29.49,10.36,36.31,8.36,7.55,20.81,10.2,46.92,10.2s35.7-3.47,42.63-15.1h1.84v12.65h34.07v-44.07h-35.99c-.36,8.28-1.9,12.4-5.42,14.69Z"/>
        <path d="M596.12,123.96h-1.43c-6.94-12.24-15.3-15.5-40.6-15.5s-34.88,1.63-43.65,7.34c-9.83,6.49-13.78,17.53-14.06,40.23h36.12c.4-17.42,5.99-20.44,33.43-20.44,24.26,0,29.8,3.28,30.35,20.44h35.95v-84.5h-36.11v52.43Z"/>
        <polygon points="716.74 156.03 752.85 156.03 752.85 137.02 809.96 137.02 809.96 111.11 752.85 111.11 752.85 88.87 716.74 88.87 716.74 111.11 697.77 111.11 697.77 137.02 716.74 137.02 716.74 156.03"/>
        <path d="M780.18,179.45c-1.63,3.47-5.71,4.9-13.06,4.9-6.94,0-10.61-1.43-12.44-4.69-1.63-2.45-1.84-3.88-1.84-14.48v-1.63h-36.11v1.63c0,7.96,0,12.85.2,14.48.41,11.02,2.45,16.32,7.55,21.42,7.14,6.94,16.52,8.98,39.58,8.98,24.89,0,35.9-3.06,43.25-12.24,5.51-7.14,6.94-13.06,7.34-31.42h-33.05c0,10-.2,10.81-1.43,13.06Z"/>
        <path d="M829.55,207.6h36.11v-41.21c0-.99.01-1.93.03-2.86h-36.13v44.07Z"/>
        <path d="M949.7,120.49c-8.36-8.57-20.4-12.04-41.82-12.04-22.85,0-34.68,5.1-40.59,17.34h-1.63v-54.26h-36.11v84.5h36.52c1.62-16.77,8.57-20.44,30.19-20.44s27.19,3.33,27.86,20.44h36.16c-.3-19.39-2.78-27.56-10.57-35.54Z"/>
        <rect x="924.2" y="163.53" width="36.11" height="44.07"/>
        <path d="M990.3,201.07c8.77,6.53,22.03,8.98,49.98,8.98,51.61,0,64.87-6.53,67.52-33.25h-35.9c-1.43,8.57-5.71,10.2-28.76,10.2-13.06,0-20.6-1.22-24.48-4.08-3.47-2.65-4.49-5.92-4.49-15.71h94.25c.06-1.22.1-2.48.13-3.67h-130.46c.3,21.83,3.34,30.78,12.21,37.54Z"/>
        <path d="M1096.78,117.64c-8.77-7.14-20.2-9.18-52.83-9.18s-43.45,2.04-52.83,8.57c-9.71,6.8-12.76,15.82-13.03,39.01h130.53c-.14-20.9-3.44-31.41-11.83-38.4ZM1014.17,147.42c.41-13.46,6.12-16.52,30.39-16.52,14.28,0,21.62,1.43,24.89,4.9,2.24,2.24,2.65,4.08,2.86,11.63h-58.14Z"/>
        <path d="M1282.81,123.76h-1.63c-7.55-12.04-16.12-15.1-41.21-15.1-18.16,0-31.62,1.43-38.96,4.49-15.06,5.9-20.17,16.69-20.19,42.88h36.12c.28-16.94,6.02-20.24,33.24-20.24,10.61,0,18.77,1.02,23.05,2.86,5.48,2.54,7.38,6.79,7.53,17.38h36.12v-44.92h-34.07v12.65Z"/>
        <path d="M1275.67,174.35c-4.08,3.06-13.26,4.69-27.33,4.69-22.83,0-29.75-2.81-31.13-15.51h-36.28c.59,19,3.76,27.52,12.13,34.07,8.36,6.32,21.01,8.77,46.51,8.77,24.07,0,32.64-3.26,39.98-15.1h1.43v8.57c0,13.46-.61,16.52-4.08,20.4-4.28,4.9-11.22,6.32-30.19,6.32s-24.28-1.84-26.32-9.18l-.41-1.02h-36.72c1.02,11.63,4.08,18.97,10.61,24.68,9.18,7.96,21.62,10.61,52.22,10.61,22.85,0,36.51-1.43,47.12-5.1,9.59-3.26,17.34-10.81,20.6-19.99,2.86-7.96,3.06-10.61,3.06-26.72v-36.31h-36.33c-.5,5.72-1.91,8.63-4.88,10.81Z"/>
        <path d="M1407.47,108.46c-28.97,0-45.69,1.84-54.06,5.71-11.22,5.51-15.91,13.06-16.93,27.13h36.11c1.02-8.77,3.67-9.59,29.58-9.59,21.83,0,24.68,2.04,24.68,17.14v5.1h-1.63c-5.71-6.12-10.61-7.55-27.34-7.55-26.52,0-35.9.61-44.67,3.06-5.19,1.35-9.35,3.52-12.53,6.57h122.08v-6.57c0-17.54-2.04-24.89-8.16-31.42-8.16-8.16-15.5-9.59-47.12-9.59Z"/>
        <path d="M1332.61,180.06c0,22.85,10,29.99,42.02,29.99,23.46,0,32.64-.82,38.55-3.26,6.53-2.65,10.4-6.12,13.46-12.44h1.43v13.26h34.68v-44.07h-127.25c-1.95,4.46-2.9,9.93-2.9,16.53ZM1396.66,166.8c15.3,0,21.01.2,23.25,1.02,4.08,1.43,6.32,4.28,6.32,8.16,0,8.57-7.14,11.02-32.64,11.02-19.38,0-24.89-2.24-24.89-10s5.92-10.2,27.95-10.2Z"/>
        <path d="M1525.79,186.53c5.35,1.7,15.62,2.8,26.17,2.8,15.2,0,24.92-1.71,29.65-5.2,6.08-4.25,7.26-12.17,7.26-24.4,0-13.24-1.73-20.66-11.18-24.5l-.14-.05c-5.49-1.91-15.3-3.05-26.25-3.05-14.58,0-24.07,1.44-29.03,4.42-7.37,4.42-8.77,12.11-8.77,24.73,0,14.33,1.83,21.76,12.29,25.24ZM1525.37,141.7c2.71-1.62,9.41-3.56,25.94-3.56,10.11,0,19.37,1.03,24.21,2.69,5.19,2.13,7.37,5.27,7.37,18.91s-1.8,17.45-4.76,19.53c-2.06,1.52-8.2,4.07-26.15,4.07-9.83,0-19.62-1.01-24.32-2.51-5.66-1.89-8.14-4.31-8.14-19.54,0-13.67,1.89-17.21,5.86-19.59Z"/>
        <path d="M1613.62,113.02c-9.73-7.36-24.64-10.36-51.45-10.36-23.34,0-34.66,3.13-42.66,12.83v-52.94h-45.23v93.48h6v-87.48h33.23v56.96h6.48l.87-1.47c7.16-12.07,16.04-15.38,41.3-15.38s39.36,2.73,47.83,9.14c9.4,7.15,12.12,16.76,12.12,42.82s-2.45,35.25-10.53,42.31c-7.99,7.17-21.98,10.09-48.31,10.09-28.24,0-37.37-3.07-44.41-14.93l-.87-1.47h-6.7v13.74h-31.01v-46.84h-6v52.84h43.01v-10.01c8.02,9.81,19.57,12.67,45.98,12.67,27.96,0,43.11-3.37,52.29-11.6,9.62-8.42,12.55-19.35,12.55-46.8s-3.38-39.16-14.49-47.61Z"/>
      </g>
    </g>
  </g>
</svg>