<?xml version="1.0" encoding="UTF-8"?>
<svg id="Ebene_2" xmlns="http://www.w3.org/2000/svg" xmlns:xlink="http://www.w3.org/1999/xlink" viewBox="0 0 1695.23 300.21">
  <defs>
    <style>
      .cls-1 {
        fill: #4dbec6;
      }

      .cls-2 {
        fill: none;
      }

      .cls-3 {
        filter: url(#drop-shadow-1);
      }

      .cls-4 {
        fill: #e3e1e1;
      }

      .cls-5 {
        fill: #41666e;
      }

      .cls-6 {
        fill: #d0bab9;
      }
    </style>
    <filter id="drop-shadow-1" x="46.27" y="41.06" width="1621" height="238" filterUnits="userSpaceOnUse">
      <feOffset dx="9" dy="10"/>
      <feGaussianBlur result="blur" stdDeviation="8"/>
      <feFlood flood-color="#000" flood-opacity=".48"/>
      <feComposite in2="blur" operator="in"/>
      <feComposite in="SourceGraphic"/>
    </filter>
  </defs>
  <g id="Blue_Camo">
    <g>
      <g>
        <g>
          <path class="cls-6" d="M1695.23,121.99v16.84c-8.56.22-17.07.28-25.16-.56-5.12-.53-9.67-1.48-13.84-2.58-20.94-5.58-32.24-15.18-56.71,4.56-6.68,5.39-11.75,8.72-10.07,16.8-32.39,4.58-52.97,65.85-115.64,32.69-18.26-9.67-22.81-20.56-49.88-32.69-2.44-1.09-4.74-6.16-11.46-8.29-51.43-16.25-169.33,68.03-185.1-13.85,24.02,1.42,29.47-16.91,25.81-31.21-8.87-34.68-115.67-8.32-119.17-37.27-2.13-17.66,31.86-21.63,53.76-27.43,7.62-2.02,13.78-4.26,16.45-7.38,6.33-7.4.3-18.12-2.71-25.88-.89-2.28-.84-4.04-.99-5.74h173.19c-.28,2.37-.77,4.91-1.51,7.62-5.58,20.49-82.25,15.74-93.49,31.38-3.32,4.61-.94,10.99,10.62,20.32,25.38,20.46,67.18-7.2,98.43,3.62,23.82,8.24,18.47,58.88,85.14,49.73,46.07-6.32-16.14-57.63,23.11-64.85,38.85-7.15,60.87,25.84,80.23,24.54,14.73-1,22.18-14.8,32.85-25.21,5.44-5.3,11.73-9.72,20.25-11.1,10.32-1.67,19.91-1.84,29.17-1.22,22.29,21.81,36.28,52.08,36.71,85.57.01.53.01,1.06.01,1.59Z"/>
          <path class="cls-4" d="M1658.51,34.83c-9.26-.62-18.85-.45-29.17,1.22-8.52,1.38-14.81,5.8-20.25,11.1-10.67,10.41-18.12,24.21-32.85,25.21-19.36,1.3-41.38-31.69-80.23-24.54-39.25,7.22,22.96,58.53-23.11,64.85-66.67,9.15-61.32-41.49-85.14-49.73-31.25-10.82-73.05,16.84-98.43-3.62-11.56-9.33-13.94-15.71-10.62-20.32,11.24-15.64,87.91-10.89,93.49-31.38.74-2.71,1.23-5.25,1.51-7.62h129.22c-7.99,13.71,7.23,25.24,25.3,29.13,44.31,9.54,74.78-1.11,105.52-13.02.41.22.81.45,1.21.69,8.58,5.05,16.48,11.11,23.55,18.03Z"/>
          <path class="cls-1" d="M306.65,79.55c-34.51,1.91-40.43,26.55-97.34,15.92-42.43-7.93-35.55-27.94-55.46-45.29-12.97-11.31-34.09-11.46-56.71-7.37-.01-.01-.02,0-.03,0-28.88,5.22-60.2,17.35-80.13,21.98-.12-.21-.8-.74-1.89-1.51,3.79-6.88,8.23-13.36,13.24-19.36C50.71,17.09,84.39,0,121.98,0h136.72c.58,1.34.81,2.49.58,3.34-3.93,14.86-39.63,14.85-56.06,13.49.06,21.62,20.11,20.63,39.75,22.17,4.17.33,8.33.77,12.27,1.57,29.05,5.89,45.09,17.63,51.41,38.98Z"/>
          <path class="cls-1" d="M1673.58,247.52c-1.99,2.87-4.1,5.66-6.32,8.35-14.87,17.97-34.78,31.62-57.54,38.76-1.93-3.28-4.25-6.17-7.24-8.48-12.41-9.59-40.64-16.66-70.11-24.94-25.46-7.15-51.85-15.21-69.75-26.58-18.24-11.58-35.14-38.03-59.38-36.98,4.86-14.81,5.53-28.86,20.69-40.6,27.07,12.13,31.62,23.02,49.88,32.69,62.67,33.16,83.25-28.11,115.64-32.69,4.92-.69,15.09-.32,20.69,0,1.69.1,3.55-.22,5.17,0,14.22,1.96,29.82,9.98,40.92,19.87,8.26,7.36,14.02,15.74,14.86,23.43.87,7.88-4.88,15.64-4.27,24.8.43,6.45,2.81,14.29,6.76,22.37Z"/>
          <path class="cls-5" d="M1633.75,16.11c-30.74,11.91-61.21,22.56-105.52,13.02-18.07-3.89-33.29-15.42-25.3-29.13h70.31c8.62,0,17.02.9,25.13,2.61h.01c12.61,2.65,24.52,7.26,35.37,13.5Z"/>
          <path class="cls-4" d="M1695.23,138.83v39.39c0,25.72-8,49.61-21.65,69.3-3.95-8.08-6.33-15.92-6.76-22.37-.61-9.16,5.14-16.92,4.27-24.8-.84-7.69-6.6-16.07-14.86-23.43-11.1-9.89-26.7-17.91-40.92-19.87l-2.58-3.61-2.59,3.61c-5.6-.32-15.77-.69-20.69,0-1.68-8.08,3.39-11.41,10.07-16.8,24.47-19.74,35.77-10.14,56.71-4.56,4.17,1.1,8.72,2.05,13.84,2.58,8.09.84,16.6.78,25.16.56Z"/>
          <path class="cls-4" d="M70.05,119.24c-19.6,5.95-12.77,14.73-16.86,19.36-.59.67-7.14,4.94-14.19,9.48-6.72,4.34-13.9,8.91-16.81,10.85-4.09,2.74-13.59,7.12-22.19,11.21v-48.15c0-21.28,5.47-41.29,15.09-58.71,1.09.77,1.77,1.3,1.89,1.51,1.46,2.46-1.47,9.31,2.55,14.65,4.55,6.04,14.26,8.65,26.3,9.59h.01c34.29,2.66,87.53-8.25,94.7,7.7,11.73,26.06-51.65,16.79-70.49,22.51Z"/>
          <path class="cls-4" d="M1439.63,300.21h-226.39c-1.05-14.91-13.31-29.76-35.32-32.22-18.79-2.11-74.98.54-112.32-6.78-19.28-3.77-33.53-10.2-35.03-21.31-1.67-12.34,25.06-22.48,39.53-23.71,27.74-2.34,100.51,26.25,105.95-12.92,5.36-38.62-59.64-19.53-89.42-21.13-45.7-2.46-61.43-33.99-117.92-15.88-45.65,14.63-22.85,56.17-60.58,60.25-25.53,2.77-51.84-21.2-71.32-21.21-27.96-.02-34.27,31.98-60,31.14-31.67-1.04-53.47-29.62-43.76-50.1,5.69-11.98,34.15-16.28,34.12-27.45-.03-9.68-38.35-23.07-31.22-38.72,6.88-5.04,70.92-1.46,84.4-4.41,14.03-3.07,21.09-27.63,47.9-28.81,15.9-.7,37.4,13.21,57.13,14.57,22.23,1.53,28.35-6.08,38.19-7.21,32.63-3.75,37.12,19.96,56.6,24.2,13.81,3,30.72-.5,41.78,3.41,12.97,4.58,7.08,29.01,39.76,34.34,55.42,9.04,65.24-19.24,98.45-24.42,14.68-2.29,19.54,2.62,27.21,3.07,15.77,81.88,133.67-2.4,185.1,13.85,6.72,2.13,9.02,7.2,11.46,8.29-15.16,11.74-15.83,25.79-20.69,40.6-15.14.65-23.52,19.54-41.61,23.83-21.44,5.08-45.97-3.67-57.24,14.73-6.84,11.16-2.03,19.14,8.76,25,24.85,13.49,81.48,15.68,100.65,19.32,12.71,2.42,18.9,7.55,25.65,9.38,1.38,4.3,1.28,7.62.18,10.3Z"/>
          <path class="cls-5" d="M1114.5,0c5.23,2.36,10.28,4.71,17.44,5.55,21.14,2.47,47.63-1.33,69.57.19,3.01,7.76,9.04,18.48,2.71,25.88-2.67,3.12-8.83,5.36-16.45,7.38-21.9,5.8-55.89,9.77-53.76,27.43,3.5,28.95,110.3,2.59,119.17,37.27,3.66,14.3-1.79,32.63-25.81,31.21-7.67-.45-12.53-5.36-27.21-3.07-33.21,5.18-43.03,33.46-98.45,24.42-32.68-5.33-26.79-29.76-39.76-34.34-11.06-3.91-27.97-.41-41.78-3.41-19.48-4.24-23.97-27.95-56.6-24.2,18-75.02-78.23-32.99-125.22-55.31-1.33-.63-2.62-1.31-3.87-2.05-18.95-11.22-13.8-25.34-23.72-34.74-.79-.75-1.8-1.48-2.98-2.21h183.03c2.44.61,5.02,1.07,7.77,1.35,9.25.94,19.42.07,30.17-1.35"/>
          <path class="cls-1" d="M990.81,0h37.94c-10.75,1.42-20.92,2.29-30.17,1.35-2.75-.28-5.33-.74-7.77-1.35Z"/>
          <path class="cls-1" d="M1201.51,5.74c-21.94-1.52-48.43,2.28-69.57-.19-7.16-.84-12.21-3.19-17.44-5.55h86.02c.15,1.7.1,3.46.99,5.74Z"/>
          <path class="cls-5" d="M1609.72,294.63c-4.64,1.47-9.4,2.65-14.26,3.55-7.21,1.33-14.63,2.03-22.22,2.03h-93.91c-12.23-5.16-25.32-6.35-39.88-10.3-6.75-1.83-12.94-6.96-25.65-9.38-19.17-3.64-75.8-5.83-100.65-19.32-10.79-5.86-15.6-13.84-8.76-25,11.27-18.4,35.8-9.65,57.24-14.73,18.09-4.29,26.47-23.18,41.61-23.83,24.24-1.05,41.14,25.4,59.38,36.98,17.9,11.37,44.29,19.43,69.75,26.58,29.47,8.28,57.7,15.35,70.11,24.94,2.99,2.31,5.31,5.2,7.24,8.48Z"/>
          <path class="cls-1" d="M1439.63,300.21c1.1-2.68,1.2-6-.18-10.3,14.56,3.95,27.65,5.14,39.88,10.3h-39.7Z"/>
          <path class="cls-5" d="M166.99,171.81c42.52-7.09,65.97-18.99,100.6-26.02,69.69-14.15,76.58,25.15,134.98,26.13,32.74.55,56.97-16.81,83.19-18.41,16.37-1,29.03,5.02,44.6,2.9,14.01-1.91,29.65-12.37,49.13-13.2,22.87-.98,36.72,8.49,47.86,10.15,29.37,4.39,54.31,5.56,77.26-9.46,65.82-43.09-63.95-76.55-118.64-68.04-9.17,1.43-21.88,12.57-39.13,14.52-24.74,2.81-63.83-5.37-79.97-1.96-20.51,4.33-29.34,28.29-43.84,28.19-9.36-.07-17.3-10.68-28.16-13.28-10.08-2.41-21.24-.52-31.25-3.56-7.96-2.42-12.23-11.34-15.6-12.84-8.17-3.63-31.07-7.95-41.38-7.38-34.51,1.91-40.43,26.55-97.34,15.92-42.42-7.93-35.55-27.93-55.45-45.29-29.54-25.76-101.33,6.36-136.87,14.61,1.46,2.46-1.47,9.32,2.55,14.65,17.51,23.23,111.33-4.25,121.02,17.29,11.72,26.06-51.65,16.79-70.5,22.51-19.59,5.95-12.77,14.72-16.86,19.36,41.23,11.05,66.35,39.98,113.8,33.22Z"/>
          <path class="cls-4" d="M610.6,28.81c-1.27,3.45-4.74,7-8.67,10.19-7.01,5.66-15.54,10.2-15.96,11.03-14.1,1.88-35.44-5.09-53.84-11.03-13.24-4.27-24.95-8.02-31.32-7.55-4.87.37-11.06,3.61-17.8,7.55-9.38,5.49-19.82,12.34-29.25,14.67-22.75,5.6-44.11-4.59-64.27,1.98-10.17,3.31-32.34,24.21-41.46,31.28-8.18-3.63-31.07-7.95-41.38-7.38-6.32-21.35-22.36-33.09-51.41-38.98-3.94-.8-8.1-1.24-12.27-1.57-19.64-1.54-39.69-.55-39.75-22.17,16.43,1.36,52.13,1.37,56.06-13.49.23-.85,0-2-.58-3.34h165.87c3.78,4.1,11.29,7.27,25.71,8.72,20.95,2.1,38.95.4,53.51-5.02,10.14-3.77,16.67,2.14,27.57.89,25.05-2.86,45.87.52,70.47,2.17-.04,1.84,7.48-3.9,7.83-2.17,1.84,9.08,5.22,12.57.94,24.22Z"/>
          <path class="cls-6" d="M1615.31,157.05l-2.59-3.62-2.59,3.62c1.69.1,3.55-.22,5.17,0Z"/>
          <path class="cls-4" d="M215.8,300.21h-40.75c4.49-2.11,9.01-4.02,12.61-4.89,9.93-2.39,19.13-.52,25.88-1.72.46,2.41,1.22,4.6,2.26,6.61Z"/>
          <path class="cls-1" d="M108.86,265.02c-7.22,12.62-7.37,26.97,6.72,35.02-31.95-1.66-60.68-15.68-81.52-37.34h-.01c-13.22-13.77-23.25-30.61-28.89-49.34h0c-3.36-11.14-5.16-22.93-5.16-35.14v-8.08c8.6-4.09,18.1-8.47,22.19-11.21,2.91-1.94,10.09-6.51,16.81-10.85,7.05-4.54,13.6-8.81,14.19-9.48,41.23,11.05,66.35,39.98,113.8,33.21-9.2,1.54-18.18,6.6-31.08,3.68-19.19,47.04,83.37,17.92,83.31,49.82-.05,29.95-81.7,5.18-107.25,35.28,0,0-.01,0,0,0-1.16,1.36-2.2,2.83-3.11,4.42Z"/>
          <path class="cls-1" d="M1213.24,300.21H215.8c-1.04-2.01-1.8-4.2-2.26-6.61,28.15-4.98,43.27-4.57,68.66-8.21,14.02-2.01,27.69-12.45,43.03-13.84,21.09-1.92,78.91,19.9,92.8-.1,2.66-3.83,3.32-7.2,2.68-10.24-2.28-11.07-21.73-17.7-25.1-25.56-20.02-46.78,66.05-10.83,84.6-8.72,56.13,6.4,54.89-20.19,90.57-38.27,21.05-10.68,53.79-11.9,56.57-35.3,29.37,4.39,54.31,5.56,77.26-9.46,65.81-43.09-63.96-76.55-118.64-68.04,1.88-6.95-2.71-20.42,0-25.83.42-.83,8.95-5.37,15.96-11.03,3.93-3.19,7.4-6.74,8.67-10.19,4.28-11.65-1.59-19.73-3.43-28.81h200.61c1.18.73,2.19,1.46,2.98,2.21,9.92,9.4,4.77,23.52,23.72,34.74,1.25.74,2.54,1.42,3.87,2.05,46.99,22.32,143.22-19.71,125.22,55.31-9.84,1.13-15.96,8.74-38.19,7.21-19.73-1.36-41.23-15.27-57.13-14.57-26.81,1.18-33.87,25.74-47.9,28.81-13.48,2.95-77.52-.63-84.4,4.41-7.13,15.65,31.19,29.04,31.22,38.72.03,11.17-28.43,15.47-34.12,27.45-9.71,20.48,12.09,49.06,43.76,50.1,25.73.84,32.04-31.16,60-31.14,19.48.01,45.79,23.98,71.32,21.21,37.73-4.08,14.93-45.62,60.58-60.25,56.49-18.11,72.22,13.42,117.92,15.88,29.78,1.6,94.78-17.49,89.42,21.13-5.44,39.17-78.21,10.58-105.95,12.92-14.47,1.23-41.2,11.37-39.53,23.71,1.5,11.11,15.75,17.54,35.03,21.31,37.34,7.32,93.53,4.67,112.32,6.78,22.01,2.46,34.27,17.31,35.32,32.22Z"/>
          <path class="cls-6" d="M501.2,0c-14.56,5.42-29.97,10.82-50.92,8.72-14.42-1.45-21.93-4.62-25.71-8.72h76.63Z"/>
          <path class="cls-6" d="M115.58,300.04c-14.09-8.05-13.94-22.4-6.72-35.02.91-1.59,1.95-3.06,3.11-4.42-.01,0,0,0,0,0,25.55-30.1,107.2-5.33,107.25-35.28.06-31.9-102.5-2.78-83.31-49.82,12.9,2.92,21.88-2.14,31.08-3.68,42.52-7.08,65.97-18.99,100.59-26.02,69.69-14.14,76.58,25.15,134.99,26.13,32.74.55,56.97-16.81,83.18-18.41,16.37-1,29.03,5.02,44.6,2.9,14.01-1.9,29.65-12.36,49.14-13.2,22.86-.99,36.72,8.49,47.86,10.15-2.78,23.4-35.52,24.62-56.57,35.3-35.68,18.08-34.44,44.67-90.57,38.27-18.55-2.11-104.62-38.06-84.6,8.72,3.37,7.86,22.82,14.49,25.1,25.56.64,3.04-.02,6.41-2.68,10.24-13.89,20-71.71-1.82-92.8.1-15.34,1.39-29.01,11.83-43.03,13.84-25.39,3.64-40.51,3.23-68.66,8.21-6.75,1.2-15.95-.67-25.88,1.72-3.6.87-8.12,2.78-12.61,4.89"/>
          <path class="cls-6" d="M585.97,50.03c-24.23,3.23-69.93-19.7-85.16-18.57-11.66.86-30.85,18.22-47.05,22.21-22.74,5.61-44.1-4.59-64.27,1.98-10.17,3.31-32.34,24.21-41.46,31.28,3.37,1.5,7.65,10.42,15.6,12.84,10.01,3.04,21.17,1.15,31.25,3.56,10.85,2.6,18.79,13.21,28.16,13.28,14.49.1,23.33-23.86,43.84-28.19,16.14-3.41,55.23,4.77,79.97,1.96,17.25-1.96,29.96-13.1,39.13-14.52,1.89-6.95-2.71-20.42,0-25.83Z"/>
        </g>
        <g>
          <rect class="cls-2" x="39" y="39" width="1617.23" height="222.21" rx="82.99" ry="82.99"/>
          <path d="M1695.22,120.4c-.43-33.49-14.42-63.76-36.71-85.57-7.07-6.92-14.97-12.98-23.55-18.03-.4-.24-.8-.47-1.21-.69-10.85-6.24-22.76-10.85-35.37-13.5h-.01c-8.11-1.71-16.51-2.61-25.13-2.61H121.98C84.39,0,50.71,17.09,28.33,43.92c-5.01,6-9.45,12.48-13.24,19.36C5.47,80.7,0,100.71,0,121.99v56.23c0,12.21,1.8,24,5.16,35.13h0c5.64,18.74,15.67,35.58,28.89,49.34h.01c20.84,21.67,49.57,35.69,81.52,37.35,2.12.11,4.25.17,6.4.17h1451.26c7.59,0,15.01-.7,22.22-2.03,4.86-.9,9.62-2.08,14.26-3.55,22.76-7.14,42.67-20.79,57.54-38.76,2.22-2.69,4.33-5.48,6.32-8.35,13.65-19.69,21.65-43.58,21.65-69.3v-56.23c0-.53,0-1.06-.01-1.59ZM1656.23,178.22c0,.7-.01,1.4-.03,2.09v.13c-.01.57-.04,1.14-.07,1.71-.01.17-.01.34-.02.51-.02.44-.05.87-.08,1.31,0,.04,0,.08,0,.12-.01.26-.03.53-.06.79-.04.57-.09,1.15-.15,1.72,0,.03-.01.06-.01.09-.07.68-.15,1.36-.23,2.03,0,.03-.01.06-.01.09-.08.63-.17,1.26-.27,1.89-.01.1-.03.21-.05.31-.09.63-.2,1.26-.31,1.88s-.23,1.24-.35,1.85c-.01.06-.02.12-.04.18-.14.68-.28,1.35-.44,2.02-.13.59-.28,1.18-.43,1.76-.04.17-.08.33-.12.48-.12.46-.24.9-.36,1.34-.08.27-.15.53-.23.79-.15.52-.31,1.04-.47,1.56-.14.46-.29.92-.45,1.38-.02.07-.05.14-.07.21-.07.24-.15.47-.23.69-.18.53-.36,1.06-.56,1.58-.23.63-.47,1.27-.72,1.89-.2.51-.41,1.02-.62,1.53-.23.55-.46,1.09-.7,1.63-.12.27-.24.54-.37.81-.42.94-.87,1.87-1.34,2.79-.13.26-.26.53-.4.79-.6,1.18-1.24,2.34-1.9,3.48-.21.37-.43.74-.65,1.1-.01.02-.02.04-.04.06-.16.27-.33.55-.5.82-.18.3-.36.59-.56.89-.18.31-.38.62-.6.92-.22.36-.45.72-.7,1.07-.06.09-.12.18-.18.27-.33.49-.66.97-1.01,1.45-.24.34-.48.68-.74,1.02-.13.19-.27.39-.42.58-.06.08-.13.16-.19.24-.03.04-.05.07-.08.11-.31.41-.63.83-.96,1.24-.32.43-.67.86-1.01,1.27-.04.04-.07.07-.1.11-.04.05-.08.1-.12.15-.08.1-.16.2-.25.3-.01.02-.03.03-.04.05-.31.37-.62.76-.95,1.12-.18.21-.36.42-.55.62-.3.36-.62.7-.94,1.05-.06.07-.13.15-.2.22-.29.33-.59.65-.9.97-.09.1-.18.19-.28.29-.03.03-.06.07-.1.1-.38.41-.77.81-1.17,1.2-.38.39-.77.77-1.17,1.15-.31.3-.62.59-.93.88-.36.34-.72.67-1.08.99-.34.32-.68.62-1.03.91-.16.15-.32.28-.47.4-.03.03-.06.05-.09.08-.37.33-.74.64-1.12.95-.95.79-1.93,1.56-2.92,2.3-.13.1-.26.2-.39.3-.45.34-.91.67-1.38.99-.08.07-.17.13-.25.18-.03.02-.05.04-.08.06-.45.33-.91.65-1.37.95-.55.38-1.11.75-1.67,1.1-.31.2-.62.41-.93.58-.03.03-.06.04-.09.06-.03.02-.05.03-.08.05-.04.03-.09.05-.13.08-.31.21-.62.4-.94.58-.34.2-.68.4-1.01.6-1.24.72-2.5,1.4-3.77,2.06-1.19.61-2.41,1.2-3.63,1.75-.56.25-1.12.5-1.68.74-.05.02-.11.05-.17.07-.62.26-1.24.52-1.87.76-.63.25-1.26.49-1.89.72-.63.24-1.25.46-1.88.67-.03.01-.05.01-.07.02-.59.2-1.18.4-1.78.58-.04.01-.09.03-.13.04-.59.19-1.18.36-1.78.54-.12.03-.24.07-.36.1-.54.15-1.07.3-1.61.43-.14.04-.28.08-.42.11-.54.14-1.08.27-1.62.4-.05.01-.09.02-.14.03-.58.14-1.18.27-1.77.39-.09.02-.18.03-.27.05-.67.14-1.34.27-2.01.39-.66.12-1.32.23-1.98.33-.02,0-.05.01-.07.01-.53.08-1.07.16-1.61.23-.22.03-.43.05-.65.08-.09.01-.17.02-.26.03-.04,0-.09,0-.13.02-.5.07-1,.12-1.5.17-.64.07-1.27.12-1.91.17-.11.01-.22.02-.32.03-.65.05-1.3.09-1.95.12h-.03c-.71.04-1.41.06-2.12.08-.71.02-1.42.03-2.14.03H121.98c-.66,0-1.32-.01-1.98-.03-.26,0-.51-.01-.76-.02-.72-.02-1.44-.06-2.16-.1-.67-.04-1.34-.09-2-.14-.04,0-.08-.01-.11-.01-.32-.02-.65-.06-.97-.09-.33-.03-.65-.07-.97-.1-.36-.04-.71-.08-1.06-.13-.32-.03-.63-.07-.94-.11-.84-.11-1.68-.23-2.51-.37-.49-.08-.97-.16-1.46-.25-.65-.12-1.3-.25-1.95-.38-.32-.07-.65-.13-.97-.21-.33-.07-.65-.14-.97-.22-.65-.15-1.29-.3-1.93-.47-1.28-.33-2.54-.69-3.79-1.08-2.51-.77-4.96-1.67-7.36-2.67-.27-.11-.54-.22-.8-.33-.31-.14-.62-.27-.92-.41-.03-.02-.07-.03-.11-.05-.32-.14-.64-.29-.96-.44-.06-.02-.12-.05-.18-.08l-.06-.03c-.46-.21-.91-.42-1.35-.64-.43-.21-.85-.42-1.27-.63l-.63-.33c-.37-.19-.73-.38-1.09-.57-.83-.45-1.64-.91-2.45-1.38-.35-.2-.7-.41-1.04-.62-.17-.1-.34-.2-.51-.31-.48-.29-.96-.59-1.43-.9-.56-.35-1.11-.72-1.66-1.09l-.02-.02s-.09-.06-.13-.09c-.04-.03-.08-.05-.12-.08-.31-.21-.62-.42-.92-.64-.06-.04-.12-.09-.18-.13-.03-.02-.06-.04-.09-.06-.35-.23-.69-.48-1.04-.74-.22-.15-.43-.31-.64-.47-.21-.16-.42-.32-.63-.48-.42-.31-.84-.64-1.26-.98-.06-.05-.12-.09-.18-.14-.32-.24-.63-.5-.93-.75-.02-.02-.04-.03-.06-.05-.1-.07-.19-.15-.28-.23-.03-.02-.05-.04-.08-.06-.46-.37-.92-.76-1.36-1.16-.51-.43-1.01-.87-1.5-1.32-.95-.87-1.88-1.75-2.79-2.66-.03-.03-.06-.06-.09-.09-.28-.28-.55-.56-.82-.84-.28-.28-.55-.56-.82-.85-.02-.02-.03-.03-.05-.05-.2-.21-.39-.42-.58-.63-.27-.28-.53-.56-.78-.85-.26-.28-.51-.57-.76-.86-.09-.1-.18-.2-.26-.29-.3-.35-.6-.7-.89-1.05-.27-.32-.53-.64-.79-.96-.08-.09-.15-.18-.22-.27-.41-.5-.81-1.01-1.19-1.52-.23-.29-.45-.57-.66-.86-.35-.46-.69-.92-1.02-1.39-.2-.29-.41-.57-.6-.86-.28-.38-.54-.77-.8-1.16-.27-.39-.52-.78-.78-1.18-.27-.41-.53-.83-.79-1.25s-.52-.84-.77-1.26c-.52-.85-1.01-1.7-1.48-2.57-.26-.46-.51-.92-.75-1.39-.22-.4-.42-.8-.63-1.21-.23-.45-.45-.9-.66-1.35-.21-.42-.41-.85-.61-1.28-.01-.03-.03-.06-.04-.09-.2-.42-.38-.84-.57-1.27-.1-.2-.19-.41-.27-.62-.11-.24-.21-.48-.31-.72-.1-.24-.2-.49-.3-.73-.3-.72-.58-1.45-.86-2.18-.01-.02-.02-.05-.02-.07-.18-.47-.35-.93-.51-1.4-.04-.08-.07-.16-.09-.25-.17-.46-.32-.92-.47-1.39-.09-.24-.17-.48-.24-.73-.13-.38-.25-.76-.36-1.15-.06-.19-.12-.39-.18-.59-.02-.06-.04-.13-.05-.19-.13-.41-.25-.83-.36-1.25-.02-.06-.03-.11-.05-.17,0-.01,0-.02,0-.03-.08-.28-.15-.56-.22-.84-.08-.28-.14-.56-.21-.84-.16-.57-.29-1.15-.42-1.73-.12-.51-.23-1.01-.33-1.52-.03-.12-.06-.25-.08-.37-.1-.46-.19-.92-.27-1.38-.17-.9-.32-1.81-.46-2.72-.08-.54-.16-1.08-.23-1.62-.02-.12-.03-.25-.05-.38-.06-.49-.12-.99-.17-1.49v-.05c-.05-.39-.09-.79-.12-1.18-.04-.32-.06-.65-.09-.97-.02-.22-.03-.43-.05-.65-.06-.77-.1-1.55-.14-2.33-.03-.56-.05-1.12-.06-1.68-.02-.71-.03-1.42-.03-2.14v-56.23c0-.7.01-1.4.03-2.09,0-.09,0-.17.01-.25.01-.58.03-1.17.06-1.75.01-.12.01-.24.02-.37.03-.52.06-1.04.1-1.56.02-.29.04-.58.07-.87.01-.12.02-.23.03-.35.02-.32.05-.64.09-.95,0-.15.02-.3.04-.44,0-.05,0-.09,0-.14.06-.6.14-1.2.21-1.79.07-.54.14-1.09.23-1.63.04-.3.08-.58.14-.88,0-.03,0-.07.01-.1.06-.39.12-.77.19-1.16.09-.54.19-1.07.3-1.61.07-.36.14-.72.22-1.08.1-.48.2-.95.31-1.43.03-.15.07-.31.11-.47.14-.6.29-1.2.44-1.8.19-.73.38-1.45.59-2.17.17-.59.35-1.17.53-1.76.2-.65.41-1.3.63-1.94.12-.35.24-.71.37-1.06.19-.54.39-1.08.59-1.61.26-.69.53-1.37.81-2.05.22-.55.45-1.1.69-1.65h.01s.03-.09.05-.13c.07-.16.14-.32.21-.48.17-.4.35-.79.54-1.18.15-.34.31-.67.47-1.01.24-.51.49-1.02.75-1.53.02-.03.03-.07.05-.1.16-.32.33-.62.49-.94.09-.18.19-.37.29-.55.21-.41.43-.82.66-1.22.27-.5.55-.99.84-1.48.85-1.48,1.76-2.92,2.7-4.34.03-.04.06-.09.09-.13.19-.29.39-.57.59-.86.5-.73,1.01-1.46,1.54-2.18.24-.32.47-.63.71-.94.34-.45.68-.9,1.03-1.34.41-.52.82-1.03,1.25-1.54.26-.32.53-.64.81-.96.35-.42.72-.84,1.09-1.25.35-.41.72-.81,1.08-1.2.11-.12.22-.24.33-.35.26-.27.51-.54.77-.8.32-.35.65-.69.99-1.03.55-.55,1.1-1.09,1.67-1.63.28-.26.56-.53.85-.79.28-.27.57-.53.86-.78.38-.35.77-.69,1.16-1.03.31-.28.63-.55.95-.81.49-.42.98-.82,1.48-1.22.35-.29.71-.57,1.07-.84.46-.36.92-.71,1.38-1.05.46-.35.92-.68,1.39-1.01.53-.38,1.06-.75,1.6-1.11,1.12-.76,2.26-1.49,3.41-2.19.51-.31,1.01-.61,1.53-.91.08-.05.16-.1.25-.14.35-.21.71-.41,1.07-.6.35-.2.7-.4,1.06-.58.21-.12.42-.23.64-.34.38-.21.77-.41,1.17-.6.03-.02.07-.03.1-.05.28-.15.58-.3.87-.43.07-.04.14-.07.21-.1.14-.08.29-.15.44-.21.09-.05.18-.1.28-.14.35-.18.7-.34,1.06-.5.49-.22.99-.44,1.49-.66.04-.02.08-.03.12-.05.26-.11.52-.23.78-.33.01,0,.01-.01.02-.01.9-.38,1.82-.75,2.75-1.09.02-.01.03-.01.05-.02.03-.01.05-.02.08-.03.01-.01.03-.01.04-.01.38-.15.76-.28,1.14-.42.44-.16.89-.32,1.33-.46.04,0,.08-.03.12-.04s.08-.03.12-.04c.02-.01.03-.01.05-.02.35-.13.72-.24,1.08-.35.05-.01.09-.03.14-.04.05-.02.11-.04.16-.05.47-.16.93-.3,1.4-.43.23-.07.46-.15.7-.21.23-.07.47-.13.7-.19.44-.13.88-.25,1.33-.36h.01c.05-.01.09-.03.14-.04.61-.16,1.23-.31,1.85-.45.64-.15,1.29-.29,1.95-.43,1.37-.28,2.75-.53,4.14-.74.57-.09,1.14-.17,1.71-.24.21-.03.41-.06.62-.08.4-.06.8-.1,1.2-.14.04-.01.09-.01.13-.01.31-.05.62-.08.94-.1.03-.01.06-.01.09-.01.35-.04.7-.07,1.06-.1.38-.03.76-.06,1.15-.08.43-.03.86-.06,1.29-.08,1.46-.08,2.94-.12,4.43-.12h1451.26c.72,0,1.43.01,2.14.03.61.01,1.21.04,1.81.07.68.03,1.36.07,2.04.12.67.05,1.35.11,2.02.17.67.07,1.34.14,2.01.22.53.06,1.05.13,1.58.21.2.02.41.05.61.08.03,0,.07,0,.1.02.28.04.56.09.84.13.28.05.56.1.84.14.65.11,1.31.23,1.96.36.31.06.62.12.92.18.31.06.62.13.92.2.06.01.13.02.2.04l.07.02,1.22.28.1.02.08.02.21.05c.09.02.18.05.28.07.04.01.09.02.13.03.26.07.51.13.77.2.29.07.59.15.89.24,1.27.34,2.52.72,3.77,1.12.57.18,1.15.38,1.72.57.08.03.17.07.27.1.57.2,1.14.41,1.7.62.57.22,1.14.44,1.7.66.09.04.18.08.28.12.55.22,1.09.45,1.63.68.59.25,1.17.51,1.75.78.43.19.86.4,1.29.6.28.14.56.27.83.41.03.02.07.03.1.05.44.21.86.44,1.29.65.57.3,1.14.6,1.7.91.57.31,1.13.63,1.69.95.55.33,1.11.65,1.66.99.55.34,1.09.68,1.63,1.02,1.08.69,2.14,1.41,3.18,2.15,1.11.79,2.2,1.6,3.27,2.44.95.74,1.87,1.5,2.78,2.29.49.42.97.84,1.45,1.27.47.43.94.86,1.41,1.3.46.44.92.88,1.38,1.33.27.26.53.52.78.78.09.09.18.18.27.27.61.62,1.21,1.25,1.8,1.9.19.21.38.41.57.62.02.03.05.06.08.09.34.38.67.76,1,1.14.41.46.8.93,1.19,1.4.08.1.16.19.23.29.07.09.15.17.22.26.2.24.41.49.59.74.02.02.04.04.05.06.04.05.08.1.12.15.33.41.66.83.97,1.25.26.34.52.68.76,1.02.28.36.54.73.8,1.1.38.52.75,1.05,1.11,1.59.02.03.04.06.05.09.37.54.73,1.08,1.08,1.63.28.42.55.85.81,1.29.28.44.54.88.8,1.33.13.2.25.4.36.61.12.2.24.41.36.62.32.56.63,1.12.93,1.69.3.55.59,1.1.87,1.66.3.6.6,1.19.88,1.79.18.37.36.74.53,1.12.1.21.2.43.29.64.22.49.44.98.65,1.48.18.42.35.84.52,1.26.04.08.07.16.1.24.29.72.57,1.44.84,2.18.22.58.43,1.16.63,1.75.12.33.23.66.34.99.06.18.12.36.17.54.11.33.22.67.32,1.01.16.51.32,1.03.47,1.55.18.63.35,1.26.52,1.9.13.47.25.95.36,1.44.04.13.07.26.1.39.01.04.01.07.02.11.15.63.29,1.27.43,1.91.14.65.27,1.3.39,1.96.12.65.23,1.3.34,1.96.07.41.13.82.19,1.23.13.82.24,1.66.32,2.49.05.42.1.84.14,1.26.05.45.09.89.13,1.34,0,.04.01.09.01.13v.04c.03.33.05.65.07.98.03.42.06.83.08,1.25.02.29.03.59.04.88,0,.13,0,.25.02.38v.12c.02.67.04,1.34.05,2.02.02.39.02.77.02,1.16v56.23Z"/>
        </g>
      </g>
      <g id="mtg4" class="cls-3">
        <path d="M61.86,200.6h36.11v-39.78c0-1.52.01-2.94.03-4.29h-36.14v44.07Z"/>
        <path d="M262.39,114.11c-8.36-8.77-20.2-12.44-40.19-12.44-23.66,0-35.5,5.71-41.61,20.2-7.75-14.28-20.6-20.2-43.86-20.2-21.42,0-33.66,5.3-38.96,16.93h-1.84v-14.48h-34.07v44.92h36.48c.61-7.58,2.07-11.46,4.94-14.32,4.08-4.08,11.22-5.92,22.03-5.92s16.73,1.63,19.99,5.3c2.9,3.07,3.66,5.43,3.83,14.94h36.54c.62-7.27,2.08-11,4.92-14.12,3.88-4.28,10.61-6.12,21.42-6.12s16.73,1.63,20.4,5.3c2.93,2.93,3.68,4.7,3.96,14.94h36.18c-.34-19.88-2.56-27.15-10.15-34.93Z"/>
        <path d="M149.17,200.6h36.11v-39.78c0-1.52.01-2.95.04-4.29h-36.14v44.07Z"/>
        <rect x="236.48" y="156.53" width="36.11" height="44.07"/>
        <rect x="298.79" y="64.53" width="36.11" height="27.13"/>
        <rect x="298.79" y="156.53" width="36.11" height="44.07"/>
        <rect x="298.79" y="104.11" width="36.11" height="44.92"/>
        <path d="M349.91,200.6h36.11v-38.55c0-2,.01-3.83.04-5.51h-36.14v44.07Z"/>
        <path d="M470.26,113.7c-8.57-8.77-20.4-12.04-43.45-12.04s-34.48,4.69-41,17.14h-1.84v-14.69h-34.07v44.92h36.42c.54-7.52,1.88-10.67,4.99-13.92,4.28-4.49,11.42-6.32,24.68-6.32s20.4,1.43,24.28,5.3c3.13,2.96,4.13,5.8,4.4,14.94h36.13c-.39-20.36-2.69-27.12-10.54-35.34Z"/>
        <path d="M444.77,156.53c0,.07,0,.14,0,.21v43.86h36.11v-43.86c0-.07,0-.14,0-.21h-36.11Z"/>
        <path d="M596.07,171.22c-4.08,2.86-13.87,4.49-27.13,4.49-24.69,0-30.29-2.71-31.1-19.18h-36.18c.34,20.54,2.97,29.49,10.36,36.31,8.36,7.55,20.81,10.2,46.92,10.2s35.7-3.47,42.63-15.1h1.84v12.65h34.07v-44.07h-35.99c-.36,8.28-1.9,12.4-5.42,14.69Z"/>
        <path d="M601.38,116.96h-1.43c-6.94-12.24-15.3-15.5-40.6-15.5s-34.88,1.63-43.65,7.34c-9.83,6.49-13.78,17.53-14.06,40.23h36.12c.4-17.42,5.99-20.44,33.43-20.44,24.26,0,29.8,3.28,30.35,20.44h35.95v-84.5h-36.11v52.43Z"/>
        <polygon points="722 149.03 758.11 149.03 758.11 130.02 815.23 130.02 815.23 104.11 758.11 104.11 758.11 81.87 722 81.87 722 104.11 703.03 104.11 703.03 130.02 722 130.02 722 149.03"/>
        <path d="M785.44,172.45c-1.63,3.47-5.71,4.9-13.06,4.9-6.94,0-10.61-1.43-12.44-4.69-1.63-2.45-1.84-3.88-1.84-14.48v-1.63h-36.11v1.63c0,7.96,0,12.85.2,14.48.41,11.02,2.45,16.32,7.55,21.42,7.14,6.94,16.52,8.98,39.58,8.98,24.89,0,35.9-3.06,43.25-12.24,5.51-7.14,6.94-13.06,7.34-31.42h-33.05c0,10-.2,10.81-1.43,13.06Z"/>
        <path d="M834.81,200.6h36.11v-41.21c0-.99.01-1.93.03-2.86h-36.13v44.07Z"/>
        <path d="M954.96,113.49c-8.36-8.57-20.4-12.04-41.82-12.04-22.85,0-34.68,5.1-40.59,17.34h-1.63v-54.26h-36.11v84.5h36.52c1.62-16.77,8.57-20.44,30.19-20.44s27.19,3.33,27.86,20.44h36.16c-.3-19.39-2.78-27.56-10.57-35.54Z"/>
        <rect x="929.46" y="156.53" width="36.11" height="44.07"/>
        <path d="M995.56,194.07c8.77,6.53,22.03,8.98,49.98,8.98,51.61,0,64.87-6.53,67.52-33.25h-35.9c-1.43,8.57-5.71,10.2-28.76,10.2-13.06,0-20.6-1.22-24.48-4.08-3.47-2.65-4.49-5.92-4.49-15.71h94.25c.06-1.22.1-2.48.13-3.67h-130.46c.3,21.83,3.34,30.78,12.21,37.54Z"/>
        <path d="M1102.04,110.64c-8.77-7.14-20.2-9.18-52.83-9.18s-43.45,2.04-52.83,8.57c-9.71,6.8-12.76,15.82-13.03,39.01h130.53c-.14-20.9-3.44-31.41-11.83-38.4ZM1019.43,140.42c.41-13.46,6.12-16.52,30.39-16.52,14.28,0,21.62,1.43,24.89,4.9,2.24,2.24,2.65,4.08,2.86,11.63h-58.14Z"/>
        <path d="M1288.07,116.76h-1.63c-7.55-12.04-16.12-15.1-41.21-15.1-18.16,0-31.62,1.43-38.96,4.49-15.06,5.9-20.17,16.69-20.19,42.88h36.12c.28-16.94,6.02-20.24,33.24-20.24,10.61,0,18.77,1.02,23.05,2.86,5.48,2.54,7.38,6.79,7.53,17.38h36.12v-44.92h-34.07v12.65Z"/>
        <path d="M1280.93,167.35c-4.08,3.06-13.26,4.69-27.33,4.69-22.83,0-29.75-2.81-31.13-15.51h-36.28c.59,19,3.76,27.52,12.13,34.07,8.36,6.32,21.01,8.77,46.51,8.77,24.07,0,32.64-3.26,39.98-15.1h1.43v8.57c0,13.46-.61,16.52-4.08,20.4-4.28,4.9-11.22,6.32-30.19,6.32s-24.28-1.84-26.32-9.18l-.41-1.02h-36.72c1.02,11.63,4.08,18.97,10.61,24.68,9.18,7.96,21.62,10.61,52.22,10.61,22.85,0,36.51-1.43,47.12-5.1,9.59-3.26,17.34-10.81,20.6-19.99,2.86-7.96,3.06-10.61,3.06-26.72v-36.31h-36.33c-.5,5.72-1.91,8.63-4.88,10.81Z"/>
        <path d="M1412.74,101.46c-28.97,0-45.69,1.84-54.06,5.71-11.22,5.51-15.91,13.06-16.93,27.13h36.11c1.02-8.77,3.67-9.59,29.58-9.59,21.83,0,24.68,2.04,24.68,17.14v5.1h-1.63c-5.71-6.12-10.61-7.55-27.34-7.55-26.52,0-35.9.61-44.67,3.06-5.19,1.35-9.35,3.52-12.53,6.57h122.08v-6.57c0-17.54-2.04-24.89-8.16-31.42-8.16-8.16-15.5-9.59-47.12-9.59Z"/>
        <path d="M1337.87,173.06c0,22.85,10,29.99,42.02,29.99,23.46,0,32.64-.82,38.55-3.26,6.53-2.65,10.4-6.12,13.46-12.44h1.43v13.26h34.68v-44.07h-127.25c-1.95,4.46-2.9,9.93-2.9,16.53ZM1401.92,159.8c15.3,0,21.01.2,23.25,1.02,4.08,1.43,6.32,4.28,6.32,8.16,0,8.57-7.14,11.02-32.64,11.02-19.38,0-24.89-2.24-24.89-10s5.92-10.2,27.95-10.2Z"/>
        <path d="M1531.05,179.54c5.35,1.7,15.62,2.8,26.17,2.8,15.2,0,24.92-1.71,29.65-5.2,6.08-4.25,7.26-12.17,7.26-24.4,0-13.24-1.73-20.66-11.18-24.5l-.14-.05c-5.49-1.91-15.3-3.05-26.25-3.05-14.58,0-24.07,1.44-29.03,4.42-7.37,4.42-8.77,12.11-8.77,24.73,0,14.33,1.83,21.76,12.29,25.24ZM1530.63,134.7c2.71-1.62,9.41-3.56,25.94-3.56,10.11,0,19.37,1.03,24.21,2.69,5.19,2.13,7.37,5.27,7.37,18.91s-1.8,17.45-4.76,19.53c-2.06,1.52-8.2,4.07-26.15,4.07-9.83,0-19.62-1.01-24.32-2.51-5.66-1.89-8.14-4.31-8.14-19.54,0-13.67,1.89-17.21,5.86-19.59Z"/>
        <path d="M1618.88,106.02c-9.73-7.36-24.64-10.36-51.45-10.36-23.34,0-34.66,3.13-42.66,12.83v-52.94h-45.23v93.48h6V61.55h33.23v56.96h6.48l.87-1.47c7.16-12.07,16.04-15.38,41.3-15.38s39.36,2.73,47.83,9.14c9.4,7.15,12.12,16.76,12.12,42.82s-2.45,35.25-10.53,42.31c-7.99,7.17-21.98,10.09-48.31,10.09-28.24,0-37.37-3.07-44.41-14.93l-.87-1.47h-6.7v13.74h-31.01v-46.84h-6v52.84h43.01v-10.01c8.02,9.81,19.57,12.67,45.98,12.67,27.96,0,43.11-3.37,52.29-11.6,9.62-8.42,12.55-19.35,12.55-46.8s-3.38-39.16-14.49-47.61Z"/>
      </g>
    </g>
  </g>
</svg>