<?xml version="1.0" encoding="UTF-8"?>
<svg id="Ebene_2" xmlns="http://www.w3.org/2000/svg" xmlns:xlink="http://www.w3.org/1999/xlink" viewBox="0 0 1695.23 321.59">
  <defs>
    <style>
      .cls-1 {
        fill: #12f53a;
      }

      .cls-2 {
        fill: #8a8694;
      }

      .cls-3 {
        fill: #2bc8ed;
      }

      .cls-4 {
        fill: #10e997;
      }

      .cls-5 {
        fill: #cc82f0;
      }

      .cls-6 {
        fill: #ea8097;
      }

      .cls-7 {
        fill: #bb16f1;
      }

      .cls-8 {
        fill: #62e623;
      }

      .cls-9 {
        fill: none;
      }

      .cls-10 {
        fill: #f1623f;
      }

      .cls-11 {
        filter: url(#drop-shadow-1);
      }

      .cls-12 {
        fill: #e3103e;
      }

      .cls-13 {
        fill: #7df79f;
      }

      .cls-14 {
        fill: #f3f21d;
      }

      .cls-15 {
        fill: #0e33d6;
      }

      .cls-16 {
        fill: #701bde;
      }

      .cls-17 {
        fill: #294836;
      }

      .cls-18 {
        fill: #f4d1d8;
      }
    </style>
    <filter id="drop-shadow-1" x="46.61" y="41.79" width="1620" height="239" filterUnits="userSpaceOnUse">
      <feOffset dx="9" dy="10"/>
      <feGaussianBlur result="blur" stdDeviation="8"/>
      <feFlood flood-color="#000" flood-opacity=".48"/>
      <feComposite in2="blur" operator="in"/>
      <feComposite in="SourceGraphic"/>
    </filter>
  </defs>
  <g id="Störsignal">
    <g>
      <g>
        <g>
          <path class="cls-18" d="M1608.65,6.46h-518.02c-70.35,0-140.84-.02-211.18,0V1.21h693.79c8.62,0,17.02.9,25.13,2.61h0c3.48.73,6.91,1.61,10.27,2.64Z"/>
          <path class="cls-15" d="M1615.36,293.91c-1.86.69-3.74,1.33-5.64,1.93-4.64,1.47-9.4,2.65-14.26,3.55-7.21,1.33-14.63,2.03-22.22,2.03h-309.04c3.4-4.79,11.71-6.83,28.17-4.97l-3.17-22.04c6.16,2.78,12.8-2.8,15.76-3.19,3.02-.39,6.37.2,9.46,0,18.33-1.13,38.15.21,56.74,0,5.25-.06,10.5.05,15.76,0,8.39-.06,16.82.06,25.21,0v25.24c67.89,1.03,135.53-1.14,203.23-2.55Z"/>
          <path class="cls-16" d="M126.12,296.44v4.98h-4.14c-2.15,0-4.28-.06-6.4-.17-9.66-.5-19.03-2.13-27.97-4.77,12.81,0,25.78-.62,38.51-.04Z"/>
          <path class="cls-16" d="M223.83,296.44c-5.66.53-16.21,6.31-25.23,3.14v1.84h-21.72c-.09-.59-.2-1.2-.32-1.83-10.95-.76-22.44,1.04-33.36.13-4.05-.34-7.2-3.25-7.63-3.28h88.26Z"/>
          <path class="cls-1" d="M1686.82,223.94c-3.46,8.81-7.92,17.12-13.24,24.79-1.99,2.87-4.1,5.66-6.32,8.35-4.2,5.08-8.8,9.81-13.75,14.14h-23.89l.02-25.23c-1.64-.02-3.99-.07-6.77-.08h-.01c-12.86-.07-34.89.51-39,6.34-1.56,2.2-1.4,6.31-2.05,9.73-.37,1.97-1.01,3.71-2.4,4.73-2.97,2.19-37.52,2.44-42.29.89-3.18-1.04-4.64-2.96-5.11-5.18-1.16-5.42,3.48-12.63,3.07-13.23-1.89-2.79-20.41-2.93-25.24-3.18-1.04-.06-2.1.04-3.15,0-4.84-5.26-20.25-5.3-25.21,0-2.1-.03-4.21.02-6.31,0v-22.08s168.08.01,168.08.01h43.57Z"/>
          <path class="cls-14" d="M1692.52,205.06c-.93,4.33-2.09,8.57-3.47,12.72-14.03-.07-28.06-.16-42.09-.25h0c-53.64-.36-107.28-.71-160.88-.02-55.17.7-111.34,2.72-166.99,3.26-.5.01-1.01.02-1.51.02,1.25-6.55-4.99-14.27,0-18.91l3.15-3.15h1.41c2.69,0,5.37-.01,8.05,0l4.7,3.13,1.6-3.13c1.06,0,2.11-.01,3.16,0,2.86.02,5.73.01,8.6,0,3.43-.02,6.87-.03,10.31,0,9.89.09,23.58-3.24,28.37-3.15,8.06.14,18.95-.24,25.21,0,3.03.11,7.78.95,12.94,1.75,2.71.41,5.53.81,8.27,1.09,1.36.14,2.71.25,4.01.31.4.02,2.79,2.35,6.07,3.08.5.11,1.02.19,1.55.21,11.52.52,23.04.96,34.57,1.32,2,.07,4,.13,6,.19,10.34.32,20.67.57,31.02.78,1.99.05,3.99.09,6,.12,1.28.03,2.57.05,3.86.07,4.53.09,9.07.16,13.61.22,19.3.28,38.6.43,57.91.48,5.98.02,11.97.03,17.95.03,12.08.02,24.16,0,36.24-.03,13.46-.04,26.93-.09,40.39-.14Z"/>
          <path class="cls-8" d="M170.25,198.73c-7,.17-14.02.38-21.07.61-16.96.55-34.05,1.23-51.21,1.77-8.92.29-17.85.53-26.8.7-9.67.18-19.35.27-29.03.23h-.01c-4.57-.02-9.15-.07-13.72-.16-8.15-.15-17.35-1.07-26.67-1.88-1.15-6.69-1.74-13.56-1.74-20.57v-2.53c13,.11,26,.2,39,.17,7.63-.01,15.25-.06,22.87-.18h0c5.73-.08,10.1-3.37,10.65-3.38,8.46-.11,16.95-.18,25.44-.2,17.07-.06,34.16.03,51.21.12,5.98.03,11.95.06,17.91.08l3.16,25.22Z"/>
          <path class="cls-3" d="M1693.67,103.7c-8.28.36-16.54.59-24.81.61-4.92.01-9.85.01-14.8,0h0c-13.3,0-26.67-.08-39.96-.12-2.18-.01-4.36-.01-6.53-.02-5.5-.02-15.79-3.13-25.22-3.15-15.26-.04-30.57-.01-45.87,0-3.9.01-7.8.01-11.7.01-2,0-4,0-6-.01h-2.62v-18.92c.88.01,1.74.02,2.62.02,1.99,0,3.99-.03,6-.07,19.61-.43,39.54-2.8,57.57-3.1,15.64-.26,34.15-3.08,47.28-3.15,3.64-.02,7.74.23,12.11.6,11.04.92,23.79,2.6,35.17,2.55,3.33-.02,6.67-.02,10.01-.02,3.09,7.89,5.38,16.18,6.76,24.77Z"/>
          <path class="cls-7" d="M170.25,25.37c-4.46-.08-10.71,3.06-16.66,3.58-1.86.17-3.68.08-5.41-.43-4.19-.15-8.41.05-12.61,0-3-.04-9.47,4.06-17.28,3.37-10.21-.9-15.78-7.63-28.39-6.73-7.55.54-14.94,6.51-15.79,6.51h-32.68c12.91-11.38,28.24-20.08,45.1-25.21h86.87c-1.43,4.31,1.67,13.68-3.15,18.91Z"/>
          <path class="cls-14" d="M1695.23,151.45v21.81c-6.84-.21-13.11-.18-18.33.25-2.68.22-5.42.09-6.3,3.15h-9.46c-1.12-1.78-2.87-2.72-4.91-3.17-3.91-.88-8.87,0-12.38-.03-3.48-.04-7.22-.12-11.15-.23-1.95-.05-3.95-.12-6-.18-10.88-.35-22.88-.84-34.83-1.13-2.25-.06-4.5-.1-6.74-.14-17.52-.32-34.42-.08-46.92,1.73l-3.15-22.06h160.17Z"/>
          <path class="cls-8" d="M1689.05,217.78c-.69,2.08-1.43,4.14-2.23,6.16h-211.66s0,22.07,0,22.07c-29.36-.34-58.89.11-88.25,0-7.24-.03-14.7.02-22.07,0-16.77-.05-33.66.03-50.43,0-.14-5.35.56-10.77-.61-15.92-.47-2.1-1.26-4.16-2.54-6.15,1.56-.01,4.75-3.13,6.3-3.15.5,0,1.01-.01,1.51-.02,55.65-.54,111.82-2.56,166.99-3.26,53.6-.69,107.24-.34,160.88.02h0c14.03.09,28.06.18,42.09.25Z"/>
          <path class="cls-17" d="M1695.23,123.2v4.96l-39,.72-24.58.45-2.05.04.02,22.08h-22.06v-47.28c2.17.01,4.35.01,6.53.02,13.29.04,26.66.11,39.96.12h0c4.95.01,9.88.01,14.8,0,8.27-.02,16.53-.25,24.81-.61.95,5.84,1.47,11.82,1.55,17.91,0,.53,0,1.06,0,1.59Z"/>
          <path class="cls-15" d="M233.3,78.97c-22.02.05-44.18-.13-66.21-.02-20.96.11-42.07-.07-63.04,0-17.38.06-34.84.02-52.24.01h-.01c-2.54-.01-5.09-.01-7.63-.01H8.31c.81-2.07,1.67-4.12,2.59-6.14l28.2.05c2.56-14.34,15.89-14.38,29.8-13.4.01-.01.02,0,.02,0,6.16.42,12.43,1.04,17.93.71,7.45-.45,14.36-3.14,21.8-3.41,41.41-1.54,83.23,1.41,124.64.13v22.08Z"/>
          <path class="cls-8" d="M1680.67,197.91c-1.42-1.25-.31-5.25-.62-5.49-1.07-.82-13.38,1.64-25.4,3.17h0c-9.19,1.17-18.2,1.8-21.88,0v-18.94c7.8.01,15.65.01,23.47.01h4.91c-1.12-1.78-2.87-2.72-4.91-3.17-3.91-.88-8.87,0-12.38-.03-3.48-.04-7.22-.12-11.15-.23-1.95-.05-3.95-.12-6-.18-10.88-.35-22.88-.84-34.83-1.13-2.25-.06-4.5-.1-6.74-.14-17.52-.32-34.42-.08-46.92,1.73-1.15.17-2.22,1.07-2.79,2.18-.16.31-.29.64-.36.97,2.74.05,14.83,6.55,22.08,3.17-.16,1.1-.11,2.38-.01,3.71.22,3.08.71,6.43-.48,8.42-1.23,2.07-14.03,3.17-30.27,3.72-3.16.1-6.46.19-9.82.26-10.26.2-21.17.24-31.02.19-2.05,0-4.06-.02-6-.03-4.18-.03-8.07-.08-11.52-.13-6.19-.09-10.98-.19-13.49-.26-6-.18-11.93.29-17.18-3.29v6.31c.4.02,2.79,2.35,6.07,3.08.5.11,1.02.19,1.55.21,11.52.52,23.04.96,34.57,1.32,2,.07,4,.13,6,.19,10.34.32,20.67.57,31.02.78,1.99.05,3.99.09,6,.12,1.28.03,2.57.05,3.86.07,4.53.09,9.07.16,13.61.22,19.3.28,38.6.43,57.91.48,5.98.02,11.97.03,17.95.03,12.08.02,24.16,0,36.24-.03,13.46-.04,26.93-.09,40.39-.14.42-1.97.8-3.96,1.12-5.97-7.15-.16-12.22-.52-12.97-1.18ZM1579.22,190.82c-4.38-13.84,18.1-11.43,25.2-10.99,7.24,18.27-22.23,20.4-25.2,10.99Z"/>
          <polygon class="cls-8" points="1695.23 128.16 1695.23 151.45 1629.62 151.45 1629.6 129.37 1631.65 129.33 1656.23 128.88 1695.23 128.16"/>
          <path class="cls-14" d="M81.73,294.59c-14.84-5.2-28.37-13.2-39.98-23.36,3.96.02,7.92.01,11.87-.01,9.28-.05,21.14,3.18,25.22,3.16l2.89,20.21Z"/>
          <path class="cls-14" d="M72.99,157.74c-.27,5.33-1.19,12.33-.46,15.77-.55.01-4.92,3.3-10.65,3.38h0c-7.62.12-15.24.17-22.87.18-13,.03-26-.06-39-.17v-26.97c13.22-.31,26.42-.47,39-.21,10.68.22,20.92.74,30.38,1.73.98.1,2.7-.19,3.08-.05.04.01.06.03.07.05.56,1.12.6,3.47.46,6.29Z"/>
          <path class="cls-6" d="M182.85,53.74c-35.37-.05-70.77-.04-106.17-.03h-.01c-18.3.01-36.6.02-54.9.03,2.06-2.97,4.25-5.84,6.56-8.61,4.02-4.82,8.4-9.32,13.1-13.46h32.68c.85,0,8.24-5.97,15.79-6.51,12.61-.9,18.18,5.83,28.39,6.73,7.81.69,14.28-3.41,17.28-3.37,1.75,9.75-4.86,5.83-10.89,6.3-5.17.41-27.37-1.13-25.52,8.58.22,1.16.79,2.48,1.76,3.98,5.19,8.01,70.03-1.84,81.93,6.36Z"/>
          <path class="cls-16" d="M233.29,53.74v3.15c-41.41,1.28-83.23-1.67-124.64-.13-7.44.27-14.35,2.96-21.8,3.41-5.5.33-11.77-.29-17.93-.71,0,0,0-.01-.02,0-13.91-.98-27.24-.94-29.8,13.4l-28.2-.05c1.3-2.83,2.69-5.61,4.19-8.32,2.04-3.71,4.27-7.29,6.68-10.75,18.3-.01,36.6-.02,54.9-.03h.01c35.4-.01,70.8-.02,106.17.03,5.26,0,10.51-.02,15.76,0,8.4,0,16.83-.03,25.22,0,3.15,0,6.3-.01,9.46,0Z"/>
          <path class="cls-13" d="M44.17,78.95c-8.99,3.28-4.92,10.2-7,16.66-1.36,4.23-5.53,5.03-5.61,5.41H2.03c1.4-7.63,3.52-15.01,6.28-22.07h35.86Z"/>
          <path class="cls-16" d="M1605.11,46.58h.01c.58,2.06,1.39,4.43,2.44,7.16-8.36-.42-16.86.36-25.22,0v-13.02s.01-12.21.01-12.21c-9-3.13-19.46,2.59-25.23,3.16-7.05.7-15.22-.93-22.06,0-3.27-5.22-11.96-3.15-17.29-3.21-35.51-.37-71.32,2.55-105.64,3.21-11.52.23-23.15-.16-34.67,0l-3.15-25.21h234.34c8.83,2.68,17.24,6.34,25.1,10.86.41.22.81.45,1.21.69,4.58,2.7,8.97,5.68,13.14,8.93-7.62,1.05-14.66,2.47-23.39,4.57-13.19,3.17-24.74-2.87-19.6,15.07Z"/>
          <path class="cls-8" d="M526.42,1.21h227.64c-75.62,4.81-151.83.77-227.64,2.09V1.21Z"/>
          <polygon class="cls-8" points="879.45 1.21 879.45 3.3 873.14 6.46 866.84 6.46 788.83 1.21 879.45 1.21"/>
          <path class="cls-17" d="M1304.96,6.46c-4.96,11.77-7.51,21.66,6.3,25.22-1.05.01-2.1,0-3.15,0-2.1.02-4.2-.02-6.3,0-18.87.16-37.87-.03-56.74,0-8.39.01-16.82.03-25.22,0-9.99-.04-23.23,3.19-28.37,3.15-7.34-.06-14.72.07-22.06,0-15.07-.15-33.93-2.8-50.43-3.15-10.47-.23-21.06.34-31.52,0l3.15-25.22h214.34Z"/>
          <path class="cls-15" d="M1090.63,6.46l-3.15,25.22c-3.15-.1-6.31.09-9.46,0-8.32-.24-20.48-2.82-31.52-3.15-8.37-.25-16.84,0-25.22,0h-18.91c.02-.23-3.47-1.1-3.19-3.09l22.12-.04v-15.79s-72.53,0-72.53,0c.43,7.27-.6,14.84.02,22.08-6.3-.06-12.61.05-18.91,0l-1.61-3.14-4.7,3.14c-12.58-.09-25.25.08-37.82,0l-6.3-3.15V6.46c70.34-.02,140.84,0,211.18,0Z"/>
          <path class="cls-15" d="M1374.31,6.46l3.15,25.22c-4.2.06-8.41-.05-12.61,0-8.39.11-16.83-.11-25.22,0-9.43.13-18.93-.09-28.37,0-13.81-3.55-11.26-13.45-6.3-25.22h69.34Z"/>
          <path class="cls-13" d="M879.45,3.3v3.15c-2.1,0-4.2,0-6.3,0l6.3-3.15Z"/>
          <path class="cls-16" d="M1289.2,274.41l3.17,22.04c-16.46-1.86-24.77.18-28.17,4.97h-42.95c-.43-7.75-1.04-15.61-1.4-23.91l25.26-1.56-25.25-4.73h85.1c-2.96.39-9.6,5.97-15.76,3.19Z"/>
          <path class="cls-16" d="M1653.51,271.22c-11.13,9.74-24.03,17.49-38.15,22.69-67.7,1.41-135.34,3.58-203.24,2.55v-25.24c24.13-.16,48.39.08,72.51,0,4.2-.01,8.4.01,12.61,0,1.05,0,2.1.01,3.15,0,3.15,0,6.3.01,9.45,0,39.88-.09,79.9,0,119.78,0h23.89Z"/>
          <path class="cls-10" d="M1475.17,246.01c2.1.02,4.2-.03,6.3,0,1.05.02,2.1-.02,3.15,0v25.22c-24.12.07-48.38-.17-72.5,0-8.39.06-16.83-.07-25.22,0v-25.22c29.37.12,58.89-.34,88.26,0Z"/>
          <path class="cls-5" d="M1364.85,246.01c-.02,2.1.04,4.2,0,6.3-.14,8.2-2.48,15.18,6.3,18.91-18.59.21-38.41-1.14-56.74,0-.16-8.39.23-16.83,0-25.22,16.77.03,33.66-.05,50.43,0Z"/>
          <path class="cls-18" d="M1314.42,246.01c.23,8.38-.16,16.83,0,25.22-3.09.19-6.44-.39-9.46,0h-15.76v-25.22c8.39,0,16.82-.01,25.22,0Z"/>
          <path class="cls-6" d="M1386.92,252.31v18.91c-5.25.04-10.51-.06-15.76,0-8.78-3.74-6.44-10.71-6.3-18.91h22.06Z"/>
          <path class="cls-5" d="M513.81,296.44v4.98H198.6v-1.84c9.02,3.17,19.57-2.61,25.23-3.14,10.96-1.03,23.38.35,34.67,0,4.2-.13,8.41.09,12.61,0,1.05-.02,2.1.02,3.15,0,7.34-.14,14.72.09,22.07,0,32.51-.39,65.19.12,97.71,0,9.43-.04,18.93.01,28.37,0,30.42-.02,60.98-.1,91.4,0Z"/>
          <path class="cls-8" d="M176.55,296.44h-40.98c-3.13-.19-6.31.14-9.45,0-12.73-.58-25.7.04-38.51.04-1.88,0-3.75-.01-5.62-.04l-.26-1.85-2.89-20.21c24.27-.14,47.66-3.09,72.49-3.16,7.35-.02,14.72.02,22.07,0-2.79,10.91,19.54,6.73,22.05,9.48,2.02,15.72-20.35,2.64-18.9,15.74Z"/>
          <path class="cls-14" d="M223.83,271.22c12.58-.03,25.25.03,37.82,0,2.75,12.56-19.41,3.52-22.08,6.32-5.55,17.26,18.67,4.29,18.93,18.9-11.29.35-23.71-1.03-34.67,0h-31.52l-1.61-3.14-4.7,3.14h-9.46c-1.45-13.1,20.92-.02,18.9-15.74-2.52-2.75-24.84,1.43-22.06-9.48,16.77-.04,33.66.04,50.43,0Z"/>
          <path class="cls-5" d="M176.88,301.42h-50.76v-4.98c3.14.14,6.32-.19,9.45,0,.43.03,3.58,2.94,7.63,3.28,10.92.91,22.41-.89,33.36-.13.12.63.23,1.24.32,1.83Z"/>
          <polygon class="cls-8" points="192.31 296.44 186.01 296.44 190.7 293.3 192.31 296.44"/>
          <path class="cls-8" d="M1509.84,246.01c4.83.25,23.34.39,25.24,3.18.58.85-8.89,14.84,2.04,18.41,4.77,1.56,39.32,1.3,42.29-.88,3.8-2.8,2.01-10.99,4.45-14.46,5-7.1,36.51-6.43,45.78-6.26l-.02,25.23c-39.88,0-79.9-.09-119.78,0v-25.22Z"/>
          <path class="cls-12" d="M1506.69,246.01c1.05.04,2.1-.05,3.15,0v25.22c-3.15,0-6.3,0-9.46,0l-1.58-3.09-1.58,3.09c-4.2.01-8.41-.01-12.61,0v-25.22c7.33.13,14.74-.29,22.06,0Z"/>
          <path class="cls-8" d="M1506.69,246.01c-7.32-.29-14.73.13-22.06,0-1.05-.02-2.1.02-3.15,0,4.97-5.3,20.38-5.25,25.22,0Z"/>
          <path class="cls-13" d="M728.15,173.51c11.91.04,28.44-2.66,37.82,3.15-8.17,1.54-13.69,7.88-8.09,15.98,3.98,5.74,60.64,2.32,72.83,2.8,8.38.33,15.96,3.19,24.94,3.43,112.82,3.05,226.18-2.6,339.01-.13-1.13-6.14,1.59-17.1-.02-22.08,3.15-.05,6.31.06,9.46,0,1.88,4.46,8.68,3.54,12.61,3.15,5.09,6.18-3.71,15.66,5.19,18.45,13.69,4.29,75.94.4,95.67.46v3.15c-5,4.64,1.25,12.36,0,18.91-1.56.01-4.75,3.14-6.3,3.15-3.15.03-6.3-.03-9.46,0-49.32.47-98.82-.49-148.14,0-140.9,1.4-281.77,1.54-422.37,3.15-38.13.44-78.33-2.76-115.29,2.94l1.82,15.97c-.66.07-3.55,2.61-6.3,3.15v-25.22c16.71-.18,35.16-2.91,50.43-3.15,24.11-.38,48.38.31,72.5,0,31.47-.4,63.11.28,94.58.02v-18.95s-75.66.02-75.66.02c-4.29-5.48-15.16-3.09-22.06-3.15-21.84-7.19-48.01-1.28-70.91-3.13-1.73.45-1.55,1.73-1.59,3.13-10.2-.03-18.01-2.76-25.22-3.15l3.15-18.91c29.21-.53,60.75-3.27,91.41-3.15ZM1311.27,205.03h-154.45c-.63,0-.63,12.61,0,12.61h154.45c.63,0-.42-10.35,0-12.61Z"/>
          <path class="cls-13" d="M290.02,176.66c36.52.03,75.15-3.25,110.32-3.15,10.03.03,22.95,3.15,28.37,3.15l3.15,22.06c-12.53-.05-25.31-.45-37.82,0-11.57.42-25.48-4.5-25.5,11.03-.02,18.85,16.34,8.21,25.5,7.88,24.27-.87,49.43,3.22,72.5,3.15,9.36-.03,19.82-3.15,25.22-3.15,31.91,0,63.15,1.69,94.56,3.15,16.74.78,25.55-.33,22.06-18.91.95.06,2.25.19,3.15,0v22.06c-8.39.09-16.83-.08-25.22,0-73.48.68-147.15-.28-220.64,0-3.27-5.22-11.96-3.15-17.29-3.21-34.14-.36-68.38.03-102.49.05l3.17-22.08c-16.76.34-33.7-.44-50.45.01-9.42.25-18.94-.23-28.37,0l-3.15-25.22c40.92.16,81.93,3.11,122.93,3.15Z"/>
          <path class="cls-1" d="M1260.84,173.51c22.21,5.61,49.23,3.41,72.5,3.15,2.1-.02,4.2.04,6.3,0v22.06c-1.05,0-2.1,0-3.15,0-2.1,0-4.2,0-6.3,0-3.15,0-6.3,0-9.46,0-1.05,0-2.1,0-3.15,0-19.74-.06-81.99,3.83-95.67-.46-8.9-2.79-.1-12.27-5.19-18.45.89-.09,3.96-3.43,6.3-3.15,13.5-.26,25.52-2.87,37.82-3.15Z"/>
          <path class="cls-8" d="M1412.13,173.51c.04,1.05-.04,2.1,0,3.15.06,1.64-6.08,11.88,0,18.91-6.27-.24-17.15.14-25.22,0,.26-8.18,2.35-15.26-6.3-18.91.41-.02,3.59-2.89,7.63-3.28,7.87-.75,16.01.67,23.89.13Z"/>
          <path class="cls-13" d="M1380.61,176.66c8.66,3.65,6.56,10.73,6.3,18.91-4.78-.09-18.48,3.25-28.37,3.15v-22.06c7.32-.24,14.77.43,22.06,0Z"/>
          <path class="cls-13" d="M1434.2,176.66h3.15v22.06c-8.91-.43-19.81-2.95-25.22-3.15-6.08-7.03.06-17.27,0-18.91h22.06Z"/>
          <path class="cls-8" d="M1358.55,176.66v22.06c-6.3-.06-12.61.04-18.91,0v-22.06c5.53-.11,12.55.21,18.91,0Z"/>
          <path class="cls-8" d="M1336.48,198.73l-1.61,3.14-4.7-3.14c2.1,0,4.2,0,6.3,0Z"/>
          <path class="cls-8" d="M1317.57,201.88v-3.15c1.05,0,2.1,0,3.15,0l-3.15,3.15Z"/>
          <path class="cls-18" d="M242.74,126.23h25.22c-17.54,2.77-21.31,6.94-18.93,25.23,7.32.21,14.76-.29,22.08-.01,1.05.04,2.1-.03,3.15,0,5.25.14,10.51-.06,15.76,0v25.22c-41-.04-82.01-2.99-122.93-3.15-31.45-.13-63.12-.43-94.56,0-1.12-5.26,1.63-18.83,0-22.06,30.31,2.76,69.57.34,100.86,0,22.13-.24,61.87,9.24,50.43-25.22h18.91Z"/>
          <path class="cls-1" d="M198.61,198.73v22.06c-16.02.04-36.35-2.68-50.43,3.15H37.86l-1.58-3.09-1.58,3.09h-6.3v-22.06c47.58.9,95.31-2.04,141.84-3.15,9.42-.23,18.95.25,28.37,0Z"/>
          <path class="cls-13" d="M28.41,201.88v18.91c-7.05.01-14.12.01-21.19,0-.74-2.05-1.43-4.12-2.06-6.22h0c-1.43-4.75-2.58-9.61-3.42-14.57,9.32.81,18.52,1.73,26.67,1.88Z"/>
          <path class="cls-13" d="M1301.81,31.67l-12.63,4.74c-2.59,18.18,11.95,14.24,25.24,14.17.09,2.07.09,4.23,0,6.3-9.11.08-36.13-1.28-23.86,15.99,3.69,5.19,17.82,2.35,23.88,2.94.22-6.28-.29-12.65-.01-18.93,7.34-.07,14.72.05,22.06,0,2.44,23.41,5.72,20.51,28.37,18.91,2.08-.15,4.22.13,6.3,0,3.11,4.9,12.28,3.55,17.39,3.31,24.92-1.19,45.71-.74,70.86-.15,18.59.43,39.52,2.95,56.74,3.15v18.91c-58.79-.11-117.72.06-176.51,0-64.04-.06-128.23.06-192.27,0l3.15-22.06c4.88.58,10.63-.17,15.76,0,16.17.54,34.33.75,50.43,0,16.49-.77,33.21-5.51,50.45-3.14,3.05-7.13-2.69-15.01-3.17-18.92-.81-6.66,11.25-8.82,6.32-22.07l-25.23-3.14c18.87-.03,37.87.16,56.74,0Z"/>
          <path class="cls-5" d="M1516.15,101.02c22.02.04,44.17-.05,66.19,0v25.22h-242.7v-25.22c58.79.06,117.72-.11,176.51,0Z"/>
          <path class="cls-1" d="M1557.12,31.67c-2.64,23.33,2.06,20.82,22.06,22.06v6.3l-22.04-3.14c-3.4,22.18,4.92,15.07,22.04,15.75.26,1.8,2.5,4.27,3.15,6.3-20.68.34-43.86,3.41-66.19,3.15-17.22-.2-38.15-2.72-56.74-3.15v-25.24c-2.09-.15-4.21.12-6.3.02-1.93-6.41,4.98-5.31,6.22-8.73,1.06-2.94-.77-9.14.12-10.14.74-.84,19.59-.58,22.26,1.31,6.23,4.4-1.9,14.31,7.63,14.56,28.95.74,18.03-13.22,20.49-15.93.78-.85,13.69.78,17.61.16,3.94-.62,6.96-3.2,7.63-3.29,6.84-.93,15.01.7,22.06,0Z"/>
          <path class="cls-13" d="M1607.56,53.74c5.06.25,15.59-1.15,18.91,0,.21.07,3.08,2.94,3.15,3.15,1.43,4.12-1,13.72,0,18.91-13.13.07-31.64,2.89-47.28,3.15-.65-2.04-2.89-4.5-3.15-6.3-.54-3.69,0-8.6,0-12.61v-6.3c1.05.06,2.1-.05,3.15,0,8.36.37,16.86-.41,25.22,0Z"/>
          <path class="cls-1" d="M1676.9,78.95c-11.38.05-24.13-1.63-35.17-2.55-4.37-.37-8.47-.62-12.11-.6-.65-3.39.16-8.67.39-13.07.14-2.33.11-4.42-.39-5.84,13.55-5.77,29.29-2.57,43.97-2.99,1.11-.03,2.21-.08,3.31-.16-.15,1.6-.22,3.21-.24,4.83-.1,6.76.68,13.69.24,20.38Z"/>
          <path class="cls-4" d="M1676.9,78.95c.44-6.69-.34-13.62-.24-20.38,4.02,6.4,7.47,13.21,10.25,20.36-3.34,0-6.68,0-10.01.02Z"/>
          <path class="cls-16" d="M1607.56,104.17v22.06h-25.22v-25.22c9.42.02,19.72,3.14,25.22,3.15Z"/>
          <path class="cls-10" d="M176.55,3.3c-.22.06-3.08,2.94-3.15,3.16h-86.87c11.23-3.41,23.13-5.25,35.45-5.25h52.66c.49.8,1.11,1.5,1.91,2.09Z"/>
          <path class="cls-14" d="M148.18,28.52c8.04.29,20.23,2.9,31.52,3.15,5.25.12,10.51-.09,15.76,0,1.05.02,2.1-.02,3.15,0v22.06c-5.25-.01-10.51,0-15.76,0-11.9-8.2-76.75,1.65-81.94-6.35-9.15-14.1,17.97-12.11,23.77-12.56,6.03-.47,12.64,3.44,10.89-6.3,4.2.05,8.42-.15,12.61,0Z"/>
          <path class="cls-3" d="M198.61,3.3v25.22l-3.15,3.15c-5.25-.09-10.51.12-15.76,0-1.49-4.73-4.63-6.22-9.46-6.3,4.83-5.23,1.73-14.6,3.15-18.91.07-.21,2.94-3.1,3.15-3.15,5.82-1.43,15.5.99,22.06,0Z"/>
          <path class="cls-2" d="M170.25,25.37c4.83.08,7.96,1.57,9.46,6.3-11.29-.25-23.48-2.86-31.52-3.15,7.31,2.17,16.21-3.25,22.06-3.15Z"/>
          <path class="cls-8" d="M1582.34,126.23h25.22v25.22h-40.98c-15.12-1.91-7.32-16.64-9.44-18.93-.93-1-20.65.73-25.25,0-.21,5.23.29,10.55.02,15.78-6.61-3.89-14.67-3.68-22.06-3.15v-18.91h72.5Z"/>
          <path class="cls-13" d="M1695.23,173.26v6.17c0,6.69-.54,13.26-1.59,19.66-7.15-.16-12.22-.52-12.97-1.18-1.42-1.25-.31-5.25-.62-5.49l-3.15-15.76v-3.15c5.22-.43,11.49-.46,18.33-.25Z"/>
          <path class="cls-1" d="M1661.14,176.66c3.15,0,6.3,0,9.46,0h6.3l3.15,15.76c-1.89-1.45-38.79,7.32-47.3,3.17v-18.95c9.43.01,18.95.01,28.38.02Z"/>
          <path class="cls-1" d="M1531.91,148.3c.27-5.23-.23-10.55-.02-15.78,4.6.73,24.32-1.01,25.25,0,2.12,2.29-5.68,17.03,9.44,18.93h-34.67c.02-1.05-.05-2.11,0-3.15Z"/>
          <path class="cls-10" d="M1538.21,173.51c-1.48.22-2.81,1.64-3.15,3.15-2.1-.04-4.2,0-6.3,0h-88.26c11.18-8.02,88.19.2,91.42-3.13.11-7.33-.17-14.74-.02-22.08h3.15l3.15,22.06Z"/>
          <path class="cls-8" d="M1676.9,173.51v3.15h-6.3c.88-3.06,3.63-2.93,6.3-3.15Z"/>
          <path class="cls-1" d="M1153.67,223.94h148.14c3.15-.03,6.3.03,9.46,0,4.42,6.85,2.95,14.54,3.15,22.06-8.39-.01-16.82,0-25.22,0-31.47-.03-63.09.03-94.56,0-8.39,0-16.82,0-25.22,0s-16.82,0-25.22,0c-7.35,0-14.72,0-22.06,0-16.77-.01-33.66-.02-50.43,0-63.9.07-128.23-.19-192.27,0-16.77.05-33.66-.06-50.43,0-31.47.11-63.09-.29-94.56,0l-3.15-18.91c140.59-1.61,281.47-1.75,422.37-3.15Z"/>
          <path class="cls-2" d="M1386.92,246.01v6.3h-22.06c.04-2.1-.02-4.2,0-6.3,7.37.02,14.83-.03,22.06,0Z"/>
          <path class="cls-3" d="M271.11,53.74c7.1.02,14,3.13,22.06,3.15,1.05,0,2.1,0,3.15,0,7.34,0,14.72.07,22.06,0,13.07-.12,29.44-2.69,44.13-3.15l-.02,25.23c22.02.06,44.18-.13,66.21-.02,1.05,0,2.1,0,3.15,0l-.02,22.08c20.97.07,42.08-.15,63.06-.02,6.3.04,12.61-.11,18.91,0v25.22c-40.93.09-82-.21-122.93,0-.81-1.46-1.2-2.87-3.15-3.15.6-8.82,7.49-16.78-4.74-18.91-56.74,1.27-113.71-1.68-170.42-.14-6.13.17-11.15,3.13-13.95,3.28-6.43.36-21.39,1.34-26.32.06-3.38-.88-1.71-6.06-2.05-6.37l-3.15-22.06c22.02-.11,44.18.07,66.21.02l-.02-22.08v-3.15c12.58.03,25.25-.03,37.82,0Z"/>
          <path class="cls-3" d="M104.05,78.95c1.37,11.86-5.88,25.49,9.46,22.06-3.82,1.22-18.44,14.51-9.53,20.56,5.12,3.48,37.81,1.32,47.35,1.51,15.71.31,31.58-.44,47.28,0,6.5.18,23.36-2.43,25.22,3.15H31.56v-3.15c.5-5.06-.73-10.89,0-15.76.3-2.01-.41-4.47,0-6.3.08-.38,4.25-1.18,5.61-5.4,2.08-6.47-1.99-13.38,6.99-16.66,19.92,0,39.97.06,59.89,0Z"/>
          <path class="cls-4" d="M167.09,78.95l3.15,22.06c-.55-.5-4.39.25-6.3,0-1.02-.13-2.11.07-3.15,0-3.12-.22-6.32.1-9.46,0-1.05-.03-2.1.01-3.15,0-7.83-.1-29.51-1.65-34.67,0-15.34,3.42-8.09-10.2-9.46-22.06,20.97-.07,42.07.11,63.04,0Z"/>
          <path class="cls-1" d="M1535.06,176.66c2.74.05,14.83,6.54,22.08,3.16-.53,3.68,1.2,9.28-.49,12.13-3.26,5.5-88.17,4.17-102.13,3.75-6-.18-11.93.29-17.18-3.28v-12.61c27.89-.27,55.87.31,83.79.14,4.16-.03,7.2-3.29,7.62-3.29,2.1,0,4.2-.04,6.3,0Z"/>
          <path class="cls-1" d="M1604.42,179.83c7.24,18.27-22.23,20.4-25.2,10.99-4.37-13.84,18.1-11.43,25.2-10.99Z"/>
          <path class="cls-6" d="M151.33,246.01v25.22c-24.84.07-48.22,3.02-72.5,3.15-4.08.02-15.94-3.21-25.22-3.15v-25.22c32.52,0,65.19-.02,97.71,0Z"/>
          <path class="cls-18" d="M53.62,246.01v25.21c-3.95.02-7.91.03-11.87.01-2.67-2.32-5.23-4.77-7.69-7.32h-.01c-5.28-5.51-10.05-11.5-14.24-17.9h33.81Z"/>
          <path class="cls-1" d="M173.41,132.52v17.72s-.01,1.21-.01,1.21c-31.29.34-70.55,2.76-100.87,0-.01-.02-.03-.04-.07-.05-.16-.14-.36-.65-.66-1.16-.26-.45-.6-.9-1.03-1.08l-.66,1.08-.73,1.21c-9.46-.99-19.7-1.51-30.38-1.73-12.58-.26-25.78-.1-39,.21v-22.42c1.14-.39,2.21-.81,3.19-1.28h18.91l4.7,3.14,1.61-3.14h53.58l1.58,3.09,1.57-3.09h12.61c1.22,5.06,3.2,8.01,5.65,9.58,7.3,4.69,18.85-2.8,27.43-3.29,3.34-.19,6.7-.26,10.07-.26,10.84.01,21.75.73,32.51.26Z"/>
          <path class="cls-4" d="M72.53,151.45c-.13-.25-2.09.11-3.15,0l1.39-2.28c1.01.43,1.47,2.26,1.76,2.28Z"/>
          <path class="cls-14" d="M249.05,31.67c3.15.03,6.3-.02,9.46,0,1.05,0,2.1,0,3.15,0,3.15.02,6.3-.02,9.46,0,.32,6.78,5.17,13.82,0,22.06-12.58-.03-25.25.03-37.82,0-3.15,0-6.3,0-9.46,0v-22.06c8.39.11,16.83-.07,25.22,0Z"/>
          <path class="cls-10" d="M223.83,31.67v22.06c-8.39-.02-16.82.02-25.22,0v-22.06c8.39.14,16.83-.11,25.22,0Z"/>
          <path class="cls-15" d="M31.56,123.08v3.15H0v-2.28c10.83-.06,23.73-2.53,31.56-.87Z"/>
          <path class="cls-2" d="M31.56,107.32c-9.45-.96-20.21.03-30.59.5.28-2.29.64-4.56,1.06-6.8h29.53c-.41,1.83.3,4.29,0,6.3Z"/>
          <path class="cls-17" d="M55.46,242.9h13.11s.01-.01.01-.01l82.75-.03v3.15c-26.23-.02-52.56-.01-78.83,0H19.81c-4.52-6.91-8.35-14.29-11.4-22.07h164.99c-6.2.59-12.65,2.84-22.07,3.16-27.03.9-57.18-2.37-83.55-.01-4.77.43-8.98,1.09-11.68,2.73h-.01c-3.53,2.14-4.47,5.95-.63,13.08Z"/>
          <path class="cls-4" d="M28.41,220.79v3.15H8.41c-.41-1.04-.81-2.09-1.19-3.15,7.07.01,14.14.01,21.19,0Z"/>
          <path class="cls-4" d="M1535.06,31.67c-.67.09-3.69,2.66-7.63,3.29-3.91.62-16.83-1.02-17.61-.16-2.46,2.71,8.46,16.67-20.49,15.93-9.53-.24-1.41-10.15-7.63-14.56-2.66-1.88-21.52-2.14-22.26-1.31-.89,1.01.95,7.2-.12,10.14-1.24,3.41-8.14,2.32-6.22,8.73-13.55-.66-27.39.22-40.98,0v-22.06c34.32-.67,70.13-3.58,105.64-3.21,5.33.06,14.02-2.01,17.29,3.21Z"/>
          <path class="cls-17" d="M1377.46,31.67c11.52-.16,23.15.22,34.67,0v22.06c-15.99-.26-37.66-3.31-50.43-3.15l3.15-18.91c4.2-.05,8.41.06,12.61,0Z"/>
          <path class="cls-3" d="M1557.12,31.67c5.76-.57,16.22-6.29,25.23-3.17v25.23c-1.06-.05-2.12.06-3.16,0-20-1.24-24.7,1.26-22.06-22.06Z"/>
          <path class="cls-15" d="M1653.18,31.13c-11.56-.2-22.49-.18-23.4.71-.79.77-2.16,18.01-3.31,21.9-1.61-.56-4.89-.52-8.42-.36-3.79.17-7.87.49-10.49.36-1.05-2.73-1.86-5.1-2.44-7.15h-.01c-5.14-17.95,6.41-11.91,19.6-15.08,8.73-2.1,15.77-3.52,23.39-4.57,1.74,1.35,3.43,2.75,5.08,4.19Z"/>
          <path class="cls-3" d="M866.84,6.46c2.1,0,4.2,0,6.3,0s4.2,0,6.3,0v25.22c-8.39-.09-16.82.07-25.22,0l-1.58-3.09-1.58,3.09c-19.92-.16-39.96.05-59.89,0l-1.58-3.09-1.58,3.09c-4.2,0-8.41,0-12.61,0-12.29-.02-28.5.01-40.98,0-8.39,0-16.83,0-25.22,0-8.27,0-16.82,0-25.22,0-2.1,0-4.2,0-6.3,0-1.76-9.55,4.82-6.07,10.89-6.3,16.29-.64,32.75.46,49.02.02l-.02-18.93c43.03-.02,86.2.01,129.23,0Z"/>
          <path class="cls-18" d="M526.42,1.21v5.25c-24.12.04-48.38-.13-72.49,0-4.21.02-8.41-.03-12.61,0V1.21h85.1Z"/>
          <path class="cls-13" d="M866.84,6.46c-43.03.01-86.21-.03-129.23,0-70.35.03-140.85-.15-211.19,0v-3.16c75.81-1.32,152.02,2.72,227.64-2.09,5.6-.35,11.2-.75,16.79-1.21l17.98,1.21,78.01,5.25Z"/>
          <path class="cls-13" d="M1087.48,31.67c10.46.34,21.05-.23,31.52,0v3.15c-5.19,1.9-22.53-4.92-22.14,4.75.77,19.09,7.55,13.5,22.14,14.17,0,2.1.09,4.21,0,6.3-.26,6.28.21,12.65.02,18.93-11.66-1.95-66.51,3.8-71.14-2.96-3.35-4.89-.21-17.95-1.36-19.14-1.75-1.82-43.26-.08-50.45.02-.26-2.36,3.04-5.34,3.15-6.3,14.4,1.53,32.1-2.05,45.91-.25,5.31.69,5.25,11.46,21.42,6.09,10.23-3.4-.63-20.78,11.46-24.75,3.15.09,6.31-.1,9.46,0Z"/>
          <path class="cls-1" d="M1219.86,31.67l-.02,18.93c2.92,3.04,29.66-6.24,25.23,6.29-4.25,0-24.32-.89-25.19.02-.77.8-.02,17.86-3.18,22.04-16.1.75-34.26.54-50.43,0,3.17-4.19,2.39-21.25,3.16-22.06,2.39-2.49,38.2,7.99,22.05-22.07,5.13.04,18.38-3.19,28.37-3.15Z"/>
          <path class="cls-8" d="M1119,34.82c0,6.3,0,12.61,0,18.91,16.71.76,33.72-.56,50.45.02l-.02-18.93c7.34.07,14.72-.06,22.06,0,16.15,30.07-19.66,19.59-22.05,22.07-.77.8,0,17.86-3.16,22.06-5.13-.17-10.88.58-15.76,0-4.29-.51-8.26-2.86-12.6-3.19l6.28-15.7-25.2-.02c.09-2.09,0-4.21,0-6.3-14.58-.66-21.36,4.92-22.14-14.17-.39-9.67,16.94-2.85,22.14-4.75Z"/>
          <path class="cls-14" d="M1169.43,34.82l.02,18.93c-16.73-.58-33.74.74-50.45-.02,0-6.3,0-12.61,0-18.91v-3.15c16.5.35,35.36,3,50.43,3.15Z"/>
          <path class="cls-4" d="M1245.08,31.67l25.23,3.14c4.94,13.25-7.13,15.41-6.32,22.07-6.3,0-12.61,0-18.91,0,4.43-12.52-22.31-3.25-25.23-6.29l.02-18.93c8.39.03,16.82.01,25.22,0Z"/>
          <path class="cls-18" d="M1339.64,31.67v22.06l-3.15,3.15c-7.34.05-14.72-.07-22.06,0,.09-2.07.09-4.23,0-6.3-.34-8.14,2.89-15.04-6.3-18.91,1.05,0,2.1.01,3.15,0,9.43-.09,18.93.13,28.37,0Z"/>
          <path class="cls-3" d="M1308.12,31.67c9.19,3.87,5.96,10.77,6.3,18.91-13.3.07-27.83,4-25.24-14.17l12.63-4.74c2.1-.02,4.2.02,6.3,0Z"/>
          <path class="cls-14" d="M788.04,31.67c1.05,0,2.1,0,3.15,0,19.92.05,39.97-.16,59.89,0,1.05,0,2.1,0,3.15,0,8.39.07,16.83-.09,25.22,0,2.1.02,4.2-.01,6.3,0,12.58.08,25.25-.09,37.82,0,1.05,0,2.1,0,3.15,0l-.02,22.08c8.38-.12,16.85.14,25.23-.02v3.15c-3.15-.05-6.31.06-9.46,0-20.94-.38-42.11.68-63.04,0-14.51-.47-30.74-3-47.28-3.15-16.77-.15-33.66.11-50.43,0-.2-6.29.2-12.65,0-18.94-2.09-.15-4.21.13-6.3.02v-3.15c4.2,0,8.4,0,12.61,0Z"/>
          <path class="cls-18" d="M1021.29,28.52c4.97,5.3,20.38,5.25,25.22,0,11.04.33,23.2,2.91,31.52,3.15-12.09,3.98-1.23,21.35-11.46,24.75-16.17,5.37-16.11-5.4-21.42-6.09-13.81-1.8-31.52,1.78-45.91.25.72-5.93-.43-12.76,0-18.91.02-.22,2.74,1.03,3.15-3.15h18.91Z"/>
          <path class="cls-16" d="M948.79,31.67c-.62-7.24.42-14.81-.02-22.08h72.53s0,15.79,0,15.79l-22.12.04c-.28,2,3.21,2.86,3.19,3.09-.42,4.18-3.14,2.93-3.15,3.15-8.96-3.35-23.31,3.06-28.37,3.15-8.8.17-15.98-3.09-22.06-3.15Z"/>
          <path class="cls-10" d="M948.79,31.67c.48,5.62,5.82,14.29,3.15,22.06-8.38.16-16.85-.1-25.23.02l.02-22.08c1.05,0,2.1,0,3.15,0,6.3.05,12.61-.06,18.91,0Z"/>
          <path class="cls-16" d="M1046.5,28.52c-4.84,5.25-20.25,5.3-25.22,0,8.38,0,16.85-.25,25.22,0Z"/>
          <path class="cls-2" d="M885.75,31.67c-2.1-.01-4.2.02-6.3,0v-3.15l6.3,3.15Z"/>
          <path class="cls-2" d="M929.88,31.67c-1.05,0-2.1,0-3.15,0s-2.1,0-3.15,0l4.7-3.14,1.61,3.14Z"/>
          <path class="cls-2" d="M1364.85,31.67l-3.15,18.91c-4.58.06-14.86,6.02-22.06,3.15v-22.06c8.39-.11,16.83.11,25.22,0Z"/>
          <path class="cls-15" d="M1219.85,277.51c.36,8.3.97,16.16,1.4,23.91h-192.7c-6.1-6.48-22.59-4.78-29.33-4.98-18.78-.57-37.94-.2-56.73,0,2.25-11.21-18.14-2.28-8.05-15.92,2.05-2.77,33.88-5.92,40.99-6.3,28.09-1.49,55.37,4.95,82.23,3.42,9.99-.56,22.96-6.02,29.82-6.42,10.41-.61,21.08.41,31.52,0,.01,6.06,5.03,14.65,3.17,22.05,12.5-.98,65.13,8.96,71.1.23,2.97-4.34,1.11-16.21,1.38-22.28h25.21l25.25,4.73-25.26,1.56Z"/>
          <path class="cls-5" d="M854.23,296.44v4.98h-144.99c0-.61,0-1.22,0-1.83,0-1.05.02-2.1,0-3.15,32.52-.2,65.19.27,97.71,0,15.7-.13,31.6.51,47.28,0Z"/>
          <path class="cls-5" d="M1289.2,246.01v25.22h-69.34c-8.39,0-16.82,0-25.22,0,.37-8.36-.26-16.84,0-25.22,31.47.03,63.09-.03,94.56,0Z"/>
          <path class="cls-5" d="M999.22,296.44v4.98h-97.73v-5c8.38-.15,16.85.24,25.24.02,5.24-.14,10.51.05,15.76,0,18.79-.2,37.95-.57,56.73,0Z"/>
          <path class="cls-15" d="M926.73,271.22v25.22c-8.39.22-16.86-.17-25.24-.02v5h-22.04v-4.98c.41-.05,3.93-2.59,7.66-3.29,14.77-2.77,15.78,7.44,14.45-16.98l-22.11-4.95h47.28Z"/>
          <path class="cls-3" d="M1028.55,301.42h-29.33v-4.98c6.74.2,23.23-1.5,29.33,4.98Z"/>
          <path class="cls-3" d="M879.45,296.44v4.98h-25.22v-4.98c8.18-.27,17.36.86,25.22,0Z"/>
          <path class="cls-10" d="M1500.39,271.22c-1.05,0-2.1,0-3.15,0l1.58-3.09,1.58,3.09Z"/>
          <path class="cls-10" d="M367.92,1.21c-.61,2.43-1.43,4.9-2.25,5.25-.31.13-.77.22-1.33.29-3.99.48-13.51-.43-17.58-.29-16.72.57-33.69-.14-50.43,0-8.39.07-16.83,0-25.22,0h-22.06V1.21h118.87Z"/>
          <rect class="cls-10" x="198.61" y="1.21" width="25.22" height="5.25"/>
          <rect class="cls-12" x="223.83" y="1.21" width="25.22" height="5.25"/>
          <path class="cls-10" d="M414.75,1.21c-.42,1.78-.95,3.55-1.8,5.25-1.05.01-2.1-.02-3.15,0-2.1.03-4.21-.05-6.31,0-3.14.06-6.31-.1-9.45,0-.43-1.04,0-3.34.04-5.25h20.67Z"/>
          <path class="cls-14" d="M198.61,1.21v2.09c-6.56.99-16.24-1.43-22.06,0-.8-.59-1.42-1.29-1.91-2.09h23.97Z"/>
          <path class="cls-15" d="M589.46,296.44v4.98h-50.43v-1.83c6.25-.03,23.45,2.32,25.22-3.15,8.39.04,16.82-.08,25.21,0Z"/>
          <path class="cls-15" d="M709.24,296.44c.02,1.05,0,2.1,0,3.15-4.92.99-19.27-1.72-21.73.35-.28.24-.49.76-.66,1.48h-47.01c-.38-2.43-1.19-4.31-3.1-4.98-5.93-2.08-37.35.09-47.28,0,0-8.37-.32-16.87,0-25.22,8.39,0,16.83.01,25.22,0,1.89,9.69,17.65,5.01,18.93,6.29,1.54,1.55-2.53,11.88,1.79,12.69,12.8,2.39,31.79-1.87,45.49-.05l-.02-18.93h25.22c4.74,7.84,2.96,16.71,3.15,25.22Z"/>
          <path class="cls-5" d="M636.74,296.44v4.98h-47.28v-4.98c9.93.09,41.35-2.08,47.28,0Z"/>
          <path class="cls-16" d="M709.24,299.59c0,.61,0,1.22,0,1.83h-22.39c.17-.72.38-1.24.66-1.48,2.46-2.07,16.81.64,21.73-.35Z"/>
          <path class="cls-16" d="M539.03,299.59v1.83h-25.22v-1.83c8.4-.03,16.83.04,25.22,0Z"/>
          <path class="cls-16" d="M639.84,301.42h-3.1v-4.98c1.91.67,2.72,2.55,3.1,4.98Z"/>
          <path class="cls-14" d="M491.75,271.22c24.12-.02,48.37.02,72.5,0,1.05,0,2.1,0,3.15,0-4.39,7.03-1.4,19.79-3.15,25.22-2.1,0-4.2.02-6.3,0-9.05-5.37-29.42-5.25-37.82,0-2.1,0-4.2,0-6.3,0-30.42-.1-60.99-.02-91.41,0l-6.3-25.22c1.05,0,2.1,0,3.15,0,24.12-.03,48.37.02,72.5,0Z"/>
          <path class="cls-1" d="M321.54,271.22c17.82-.03,35.76.02,53.58,0,2.69,5.11,10.71,2.97,15.76,3.15,5.44,5.81,2.84,14.56,3.15,22.06-32.52.12-65.2-.39-97.71,0l3.15-25.22c7.34-.01,14.72.01,22.06,0Z"/>
          <path class="cls-8" d="M271.11,271.22l3.15,3.15c9.41-.02,19.74-3.14,25.22-3.15l-3.15,25.22c-7.34.09-14.72-.14-22.06,0l-1.58-3.09-1.58,3.09c-4.2.09-8.41-.13-12.61,0-.26-14.61-24.48-1.64-18.93-18.9,2.67-2.79,24.83,6.24,22.08-6.32,3.15,0,6.3,0,9.46,0Z"/>
          <path class="cls-13" d="M416.1,271.22l6.3,25.22c-9.44,0-18.93-.04-28.37,0-.31-7.5,2.29-16.25-3.15-22.06v-3.15c8.39-.01,16.82,0,25.22,0Z"/>
          <path class="cls-17" d="M520.12,296.44c12.58.05,25.25-.09,37.82,0,2.1.02,4.2,0,6.3,0-1.76,5.47-18.96,3.12-25.22,3.15-8.39.04-16.82-.03-25.22,0v-3.15c2.1,0,4.2,0,6.3,0Z"/>
          <path class="cls-14" d="M274.26,296.44c-1.05.02-2.1-.02-3.15,0l1.58-3.09,1.58,3.09Z"/>
          <path class="cls-10" d="M173.4,246.01c17.71,0,33.73,3.15,50.43,3.15v22.06c-16.77.04-33.66-.04-50.43,0-7.35.02-14.72-.02-22.06,0v-25.22c7.34,0,14.72,0,22.06,0Z"/>
          <path class="cls-6" d="M324.69,246.01l-3.15,25.22c-7.35.01-14.72-.01-22.06,0-5.47,0-15.81,3.13-25.22,3.15-.22,0-1.03-3.16-3.15-3.15-3.15,0-6.3,0-9.46,0-12.58.03-25.25-.03-37.82,0v-22.06c33.01,0,67.27-3.12,100.86-3.15Z"/>
          <path class="cls-5" d="M513.81,126.23c24.12-.05,48.38.03,72.5,0l-.02,25.23,23.42.04,1.81-25.27c10.48-.02,21.04.02,31.52,0,22.02-.03,44.17.02,66.19,0-1.82,5.6,1.28,18.33-.02,25.23,5.22.22,10.55-.29,15.78-.02l3.15,22.06c-30.66-.11-62.2,2.62-91.41,3.15-2.1.04-4.2-.04-6.3,0l-1.58-3.09-1.58,3.09c-1.05.02-2.1-.02-3.15,0-2.1.03-4.2-.03-6.3,0l-1.58-3.09-1.58,3.09c-16.77.22-33.66-.12-50.43,0l.02-25.23c-54.59-.07-109.33.15-163.92.02-2.1,0-4.2,0-6.3,0v-3.15c.05-6.24-.22-16.82-3.15-22.06,40.92-.21,82,.09,122.93,0Z"/>
          <path class="cls-14" d="M1049.65,126.23c-12.45,39.02,22.43,21.76,47.28,25.22,5.06.53,10.59-.23,15.76,0,3.14.14,6.31-.1,9.46,0,15.69.48,31.58-.19,47.28,0,8.39.1,16.83-.07,25.22,0,71.38.57,142.95-.13,214.34,0-1.96,7.57,2.91,15.63,3.15,22.06-7.87.55-16.02-.88-23.89-.13-4.04.39-7.22,3.26-7.63,3.28-7.3.43-14.75-.24-22.06,0-6.36.21-13.38-.11-18.91,0-2.1.04-4.2-.02-6.3,0-22.08-5.39-49.41-3.69-72.5-3.15-12.3.29-24.32,2.89-37.82,3.15-5.14.1-12.59-.12-18.91,0-3.15.06-6.31-.05-9.46,0-1.03-3.2-1.37-2.83-4.56-3.24-24.41-3.11-60.78.22-86.84.09-3.15-.02-6.3-.02-9.46,0-1.05,0-2.1-.01-3.15,0-6.3.06-12.61-.09-18.91,0-13.62.19-27.36-.16-40.98,0-2.1.02-4.2-.02-6.3,0h-25.22c-2.34-27.53-.14-22.45,25.23-22.05l-.02-25.23h25.22Z"/>
          <path class="cls-1" d="M1030.74,173.51c9.47,5.25,30.85,5.36,40.98,0,6.3-.09,12.61.06,18.91,0l1.58,3.09,1.58-3.09c3.15-.02,6.3-.02,9.46,0,3.28,5.23,11.96,3.14,17.29,3.21,24.64.3,49.51.32,74.12-.05,1.61,4.99-1.11,15.94.02,22.08-112.83-2.47-226.19,3.18-339.01.13-8.98-.24-16.56-3.1-24.94-3.43-12.19-.48-68.86,2.94-72.83-2.8-5.6-8.1-.08-14.44,8.09-15.98,3.56-.67,8.59.22,12.61,0,1.05-.06,2.1.04,3.15,0,54.38-2.01,109.44.68,163.9,0,2.1-.03,4.2.03,6.3,0,15.72-.2,31.56.15,47.28,0,9.28-.09,20.62-3.1,25.22-3.15,2.1-.02,4.2.02,6.3,0Z"/>
          <path class="cls-18" d="M734.45,246.01c31.47-.29,63.09.11,94.56,0-1.57,27.52,28.18,15.85,44.13,25.22h-167.06c-8.39,0-16.83,0-25.22,0-22.02,0-44.17,0-66.19,0-8.39,0-16.83,0-25.22,0,.24-6.27-.29-12.63.02-18.89,7.72.99,14.73-1.72,22.04-3.17,2.75-.55,5.65-3.08,6.3-3.15,34.48-3.78,80.51.33,116.62,0Z"/>
          <path class="cls-4" d="M731.3,227.1l3.15,18.91c-36.11.33-82.14-3.78-116.62,0l-1.82-15.97c36.97-5.7,77.16-2.5,115.29-2.94Z"/>
          <path class="cls-18" d="M1311.27,205.03c-.42,2.26.63,12.61,0,12.61h-154.45c-.63,0-.63-12.61,0-12.61h154.45Z"/>
          <path class="cls-5" d="M753.37,201.88l75.66-.02v18.95c-31.47.27-63.11-.42-94.58-.02v-18.91c6.3-.09,12.61,0,18.91,0Z"/>
          <path class="cls-7" d="M734.45,201.88v18.91c-24.11.31-48.39-.38-72.5,0-6.92-6.34-.06-13.57,0-15.76,24.13-3.37,48.2-2.82,72.5-3.15Z"/>
          <path class="cls-15" d="M633.59,195.58c7.21.39,15.02,3.12,25.22,3.15-.05,1.72,3.19,5.01,3.15,6.3-.06,2.19-6.92,9.42,0,15.76-15.27.24-33.72,2.97-50.43,3.15v-22.06c2.03-.42,7.05-5.76,9.46-6.3,2.88-.65,9.13-.19,12.61,0Z"/>
          <path class="cls-15" d="M611.53,223.94v22.06c-8.67,3.38-23.73-3.15-28.37-3.15,4.73-2.19,3.06-8.46,3.15-12.61.05-2.1-.03-4.2,0-6.3,8.39-.08,16.83.09,25.22,0Z"/>
          <path class="cls-18" d="M734.45,151.45c15.7.33,31.57-.06,47.28,0v22.06l-3.15,3.15c-4.02.22-9.04-.67-12.61,0-9.39-5.81-25.91-3.11-37.82-3.15l-3.15-22.06c3.13.17,6.31-.07,9.46,0Z"/>
          <path class="cls-6" d="M611.53,246.01v3.15c-7.31,1.45-14.32,4.16-22.04,3.17-.31,6.26.22,12.62-.02,18.89-7.35,0-14.72,0-22.06,0-1.05,0-2.1,0-3.15,0v-25.22c7.66-.03,15.42-3.15,18.91-3.15,4.64,0,19.69,6.53,28.37,3.15Z"/>
          <path class="cls-8" d="M1301.81,223.94h-148.14c49.32-.49,98.82.47,148.14,0Z"/>
          <path class="cls-2" d="M731.3,198.73c6.91.07,17.77-2.32,22.06,3.15-6.3,0-12.61-.09-18.91,0-24.3.33-48.37-.22-72.5,3.15.03-1.29-3.2-4.58-3.15-6.3,24.12.06,48.38-.23,72.5,0Z"/>
          <path class="cls-1" d="M630.44,176.66c2.1-.04,4.2.04,6.3,0l-3.15,18.91c-3.47-.19-9.73-.65-12.61,0l3.15-18.91c1.05-.02,2.1.02,3.15,0s2.1.02,3.15,0Z"/>
          <path class="cls-18" d="M731.3,198.73c-24.12-.23-48.38.06-72.5,0,.04-1.39-.15-2.67,1.59-3.13,22.9,1.85,49.07-4.07,70.91,3.13Z"/>
          <path class="cls-8" d="M1223.01,176.66c-2.35-.28-5.42,3.06-6.3,3.15-3.93.39-10.73,1.31-12.61-3.15,6.32-.12,13.78.1,18.91,0Z"/>
          <path class="cls-8" d="M1333.33,176.66c-23.26.25-50.28,2.45-72.5-3.15,23.09-.54,50.41-2.24,72.5,3.15Z"/>
          <path class="cls-10" d="M1418.44,151.45c6.3.01,12.61,0,18.91,0l-3.15,25.22h-22.06c-.04-1.05.04-2.1,0-3.15-.24-6.43-5.11-14.49-3.15-22.06,3.15,0,6.3,0,9.46,0Z"/>
          <path class="cls-12" d="M1531.91,151.45c-.15,7.34.13,14.75.02,22.08-3.24,3.33-80.24-4.88-91.42,3.13h-6.3l3.15-25.22c31.47.02,63.09,0,94.56,0Z"/>
          <path class="cls-8" d="M1528.76,176.66c-.41,0-3.46,3.26-7.62,3.29-27.92.18-55.9-.41-83.79-.14v-3.15h91.41Z"/>
          <path class="cls-8" d="M564.25,176.66c16.77-.12,33.67.22,50.43,0,1.05-.01,2.1.01,3.15,0,2.1-.03,4.2.03,6.3,0l-3.15,18.91c-2.41.55-7.42,5.88-9.46,6.3-.91.19-2.2.06-3.15,0-5.08-.29-12.45-3.18-22.06-3.15-32.53.09-65.19-.12-97.71,0-8.58.03-18.88,3.14-22.06,3.15-12.69.06-23.35-3.11-34.67-3.15l-3.15-22.06c45.12.02,90.42.32,135.54,0Z"/>
          <path class="cls-18" d="M400.34,151.45c54.59.13,109.33-.08,163.92-.02l-.02,25.23c-45.12.32-90.41.02-135.54,0-5.42,0-18.34-3.13-28.37-3.15v-22.06Z"/>
          <path class="cls-14" d="M296.33,151.45c8.39.06,16.83-.03,25.22,0,17.82.07,35.76-.06,53.58,0,2.1,0,4.2,0,6.3,0,4.2.01,8.41-.01,12.61,0,2.1,0,4.2,0,6.3,0v22.06c-35.17-.09-73.8,3.19-110.32,3.15v-25.22c2.1.02,4.2-.02,6.3,0Z"/>
          <path class="cls-16" d="M365.67,223.94c73.49-.28,147.16.68,220.64,0-.03,2.1.05,4.2,0,6.3l-192.29-.03.02,12.64h-72.5c-.62-3.49.95-14.81.02-15.78-2.68-2.78-40.72,4.47-47.3-3.13,30.41-.37,60.99.12,91.41,0Z"/>
          <path class="cls-4" d="M586.31,198.73c3.14,7.58,3.14,14.49,0,22.06-31.41-1.46-62.65-3.14-94.56-3.15l-3.15-18.91c32.53-.12,65.19.09,97.71,0Z"/>
          <path class="cls-4" d="M431.86,198.73c11.32.04,21.98,3.21,34.67,3.15v18.91c-23.06.06-48.22-4.02-72.5-3.15v-18.91c12.51-.45,25.29-.05,37.82,0Z"/>
          <path class="cls-8" d="M198.61,198.73c16.75-.45,33.69.33,50.45-.01l-3.17,22.08c-15.72.01-31.56-.04-47.28,0v-22.06Z"/>
          <path class="cls-2" d="M198.61,220.79c15.72-.04,31.56.01,47.28,0,34.1-.02,68.35-.41,102.49-.05,5.33.06,14.02-2.01,17.29,3.21-30.41.12-61-.37-91.41,0-24.18.3-52.21-2.13-75.65,0-8.3.54-16.96-.78-25.22,0h-25.22c14.09-5.83,34.41-3.12,50.43-3.15Z"/>
          <path class="cls-1" d="M488.6,198.73l3.15,18.91c-5.4,0-15.86,3.13-25.22,3.15v-18.91c3.18-.01,13.49-3.12,22.06-3.15Z"/>
          <path class="cls-1" d="M394.04,198.73v18.91c-9.16.33-25.52,10.97-25.5-7.88.02-15.54,13.93-10.62,25.5-11.03Z"/>
          <path class="cls-1" d="M608.37,201.88c3.49,18.58-5.32,19.69-22.06,18.91,3.14-7.58,3.14-14.49,0-22.06,9.61-.03,16.99,2.86,22.06,3.15Z"/>
          <path class="cls-16" d="M387.73,123.08l-144.99,3.15h-18.91c-1.85-5.58-18.71-2.97-25.22-3.15v-15.76c2.81-.16,7.83-3.12,13.95-3.28,56.71-1.54,113.69,1.41,170.42.14,12.23,2.13,5.34,10.08,4.74,18.91Z"/>
          <path class="cls-4" d="M223.83,126.23c11.44,34.45-28.3,24.98-50.43,25.22l.02-18.93c-14.1.61-28.47-.81-42.58,0-11.48.65-28.23,13.83-33.08-6.28h126.08Z"/>
          <path class="cls-1" d="M318.39,126.23v3.15l-22.08-.02.02,22.08c-2.1-.02-4.2.02-6.3,0-5.25-.06-10.51.14-15.76,0l-3.15-3.15v-22.06c14.5-1.54,32.17.3,47.28,0Z"/>
          <path class="cls-13" d="M271.11,148.3v3.15c-7.33-.28-14.76.22-22.08.01-2.38-18.29,1.39-22.46,18.93-25.23,1.02-.16,2.11.11,3.15,0v22.06Z"/>
          <path class="cls-15" d="M387.73,123.08c1.95.28,2.34,1.7,3.15,3.15-7.35.04-14.72-.05-22.06,0-16.76.12-33.68-.34-50.43,0-15.11.3-32.78-1.54-47.28,0-1.04.11-2.13-.16-3.15,0h-25.22l144.99-3.15Z"/>
          <path class="cls-8" d="M274.26,151.45c-1.05-.03-2.1.04-3.15,0v-3.15l3.15,3.15Z"/>
          <polygon class="cls-4" points="37.86 223.94 34.71 223.94 36.29 220.85 37.86 223.94"/>
          <path class="cls-1" d="M980.31,56.89c5.25,0,10.51.07,15.76,0,7.19-.1,48.7-1.84,50.45-.02,1.15,1.19-1.99,14.25,1.36,19.14,4.63,6.76,59.48,1.01,71.14,2.96.2-6.28-.28-12.65-.02-18.93l25.2.02-6.28,15.7c4.34.33,8.31,2.68,12.6,3.19l-3.15,22.06c-17.82-.02-35.76.01-53.58,0-103.94-.08-208.12,1.06-312.05,0,.88-5.82-3.5-13.36,3.81-16.74,17.26-7.98,50.34,3.99,68.68-5.32,8.08,0,15,3.2,22.06,3.15,15.47-.11,36.44-2.52,53.58-3.15,20.94-.77,51.25,8.44,44.13-22.06,2.1,0,4.2,0,6.3,0Z"/>
          <path class="cls-16" d="M1147.37,101.02c64.04.06,128.23-.06,192.27,0v25.22h-242.7l-3.15-25.22c17.82.01,35.76-.02,53.58,0Z"/>
          <path class="cls-8" d="M1412.13,53.74c13.58.22,27.43-.66,40.98,0,2.09.1,4.21-.17,6.3-.02v25.24c-25.14-.58-45.94-1.03-70.86.15-5.11.24-14.29,1.59-17.39-3.31.41-.03,3.55-2.91,7.62-3.29,15.63-1.44,35.17,7.83,30.22-12.46-13.12,1.43-29.81-2.03-42.32-.07-3.96.62-.96,12.03-1.82,15.82-22.64,1.6-25.92,4.49-28.37-18.91l3.15-3.15c7.2,2.86,17.48-3.1,22.06-3.15,12.77-.16,34.44,2.89,50.43,3.15Z"/>
          <path class="cls-8" d="M1245.08,56.89c6.3,0,12.61,0,18.91,0,.47,3.91,6.22,11.79,3.17,18.92-17.23-2.37-33.96,2.37-50.45,3.14,3.15-4.18,2.4-21.24,3.18-22.04.87-.91,20.94-.03,25.19-.02Z"/>
          <path class="cls-14" d="M1364.85,75.8c.86-3.78-2.14-15.2,1.82-15.82,12.52-1.96,29.2,1.51,42.32.07,4.95,20.29-14.59,11.02-30.22,12.46-4.07.37-7.2,3.26-7.62,3.29-2.09.13-4.22-.15-6.3,0Z"/>
          <path class="cls-8" d="M1314.42,56.89c-.28,6.28.23,12.65.01,18.93-6.06-.58-20.19,2.25-23.88-2.94-12.26-17.27,14.75-15.91,23.86-15.99Z"/>
          <path class="cls-13" d="M1339.64,126.23h170.21v18.91c-.56.04-3.51,3.1-7.63,3.28-27.37,1.18-57.44-3.77-83.78,3.02-3.15,0-6.3,0-9.46,0-71.39-.13-142.96.57-214.34,0,2.89-23.08-4.13-23.75-25.23-22.08v22.08c-15.69-.19-31.58.48-47.27,0-.11-2.09.16-4.22,0-6.3-.49-6.43-2.71-12.48-3.15-18.91h220.64Z"/>
          <path class="cls-8" d="M1579.19,60.04c0,4-.54,8.92,0,12.61-17.12-.68-25.44,6.43-22.04-15.75l22.04,3.14Z"/>
          <path class="cls-3" d="M1673.59,53.9c-14.68.42-30.42-2.78-43.97,2.99-.07-.21-2.94-3.08-3.15-3.15,1.15-3.89,2.52-21.13,3.31-21.9.91-.89,11.84-.91,23.4-.71,1.83,1.58,3.6,3.22,5.33,4.91,5.57,5.45,10.62,11.43,15.08,17.86Z"/>
          <path class="cls-2" d="M198.61,31.67c-1.05-.02-2.1.02-3.15,0l3.15-3.15v3.15Z"/>
          <path class="cls-15" d="M204.92,6.46c20.01,10.28,50.33-10.88,44.13,25.22-8.39-.07-16.83.11-25.22,0-8.39-.11-16.83.14-25.22,0V6.46h6.3Z"/>
          <path class="cls-2" d="M1531.91,148.3c-.05,1.05.02,2.1,0,3.15-31.47,0-63.09.02-94.56,0-6.3,0-12.61.01-18.91,0,26.34-6.8,56.41-1.85,83.78-3.02,4.12-.18,7.07-3.24,7.63-3.28,7.39-.53,15.45-.73,22.06,3.15Z"/>
          <path class="cls-14" d="M1071.72,246.01v6.3c-4.31.75-20.97-1.12-22.05,0-.86.89,1.16,15.16-3.16,18.91h-122.93l-44.14-3.13.02-22.08c64.04-.19,128.37.07,192.27,0Z"/>
          <path class="cls-2" d="M1122.15,246.01c3.11,8-3.16,20.1-3.15,25.22-10.44.4-21.11-.61-31.52,0h-15.76v-25.22c16.77-.02,33.66-.01,50.43,0Z"/>
          <path class="cls-13" d="M879.45,246.01l-.02,22.08,44.14,3.13h-50.43c-15.95-9.37-45.7,2.3-44.13-25.22,16.77-.06,33.66.05,50.43,0Z"/>
          <path class="cls-6" d="M1194.65,246.01c-.26,8.37.37,16.85,0,25.22-16.75.01-33.69-.37-50.43,0v-18.91c9.42-1.69,28,5.23,25.22-6.3,8.39,0,16.82,0,25.22,0Z"/>
          <path class="cls-5" d="M1144.21,246.01v25.22c-8.38.18-16.85-.32-25.22,0-.01-5.11,6.27-17.22,3.15-25.22,7.35,0,14.72,0,22.06,0Z"/>
          <path class="cls-2" d="M1169.43,246.01c2.79,11.53-15.8,4.62-25.22,6.3v-6.3c8.39,0,16.82,0,25.22,0Z"/>
          <path class="cls-5" d="M494.9,78.95c20.97,0,42.07,0,63.04,0l.02,18.93c-2.93,3.04-54.75-4.67-63.06,3.13-20.97-.13-42.08.09-63.06.02l.02-22.08c20.97.09,42.07,0,63.04,0Z"/>
          <path class="cls-13" d="M589.46,104.17c-5,40.84,22.81.73,37.82,0,.23.33,4.63-1.01,5.68.53,3.55,5.2,7.47,15.31,10.08,21.54-10.48.02-21.04-.02-31.52,0-8.39.01-16.82-.01-25.22,0-24.12.03-48.38-.05-72.5,0v-25.22c24.09.41,53.3,4.27,75.65,3.15Z"/>
          <path class="cls-15" d="M368.82,31.67c4.85.12,24.33-.9,25.23-.02,1.27,1.25-1.3,20.85-.03,22.1.9.89,20.38-.14,25.23-.02,3.15.08,6.31-.04,9.46,0v25.22c-22.02-.11-44.18.07-66.21.02l.02-25.23c2.1-.07,4.21.09,6.3,0,6.28-.26,12.65.22,18.93,0,2.01-16.65-2.21-20.94-18.93-18.91v-3.15Z"/>
          <path class="cls-16" d="M620.98,78.95c-.88,5.6,2.38,16.93-2.95,20.7-4.28,3.02-16.92.77-23.56,1.6-2.52.31-4.48,2.89-5.01,2.92-22.35,1.12-51.56-2.75-75.65-3.15-6.3-.11-12.61.04-18.91,0,8.31-7.81,60.12-.09,63.06-3.13l-.02-18.93h63.04Z"/>
          <path class="cls-16" d="M488.6,53.74c1.05,0,2.1,0,3.15,0l3.15,25.22c-20.97,0-42.07.09-63.04,0-1.05,0-2.1,0-3.15,0v-25.22c19.91.26,39.97-.05,59.89,0Z"/>
          <path class="cls-5" d="M343.61,31.67c8.39.08,16.84-.21,25.22,0v22.06c-2.1.09-4.21-.07-6.3,0-14.69.46-31.06,3.03-44.13,3.15l3.15-25.22c7.35.04,14.72-.07,22.06,0Z"/>
          <path class="cls-15" d="M160.79,101.02l1.58,3.09,1.58-3.09c1.91.25,5.75-.5,6.3,0,.34.3-1.34,5.49,2.05,6.37,4.93,1.28,19.89.3,26.32-.06v15.76c-15.7-.44-31.57.31-47.28,0,2.18-6.5,4.47-12.89,0-18.91v-3.15c3.14.1,6.33-.22,9.46,0Z"/>
          <path class="cls-7" d="M302.63,31.67c3.15,0,6.3-.01,9.46,0,2.1,0,4.2,0,6.3,0,1.05,0,2.1,0,3.15,0l-3.15,25.22c-7.34.07-14.72,0-22.06,0v-25.22c2.1,0,4.2,0,6.3,0Z"/>
          <path class="cls-12" d="M296.33,31.67v22.06l-3.15,3.15c-8.06-.02-14.96-3.14-22.06-3.15,5.17-8.25.32-15.29,0-22.06,8.39.05,16.82-.02,25.22,0Z"/>
          <path class="cls-5" d="M296.33,56.89c-1.05,0-2.1,0-3.15,0l3.15-3.15v3.15Z"/>
          <path class="cls-16" d="M148.18,101.02l3.15,3.15c4.47,6.02,2.18,12.41,0,18.91-9.54-.19-42.23,1.97-47.35-1.51-8.91-6.05,5.71-19.34,9.53-20.56,5.17-1.65,26.84-.1,34.67,0Z"/>
          <path class="cls-16" d="M31.56,123.08c-7.83-1.66-20.73.81-31.56.87v-.75c0-5.21.33-10.34.97-15.38,10.38-.47,21.14-1.46,30.59-.5-.73,4.87.5,10.7,0,15.76Z"/>
          <polygon class="cls-4" points="81.99 126.23 85.14 126.23 83.57 129.32 81.99 126.23"/>
          <path class="cls-3" d="M160.79,101.02c1.04.07,2.13-.13,3.15,0l-1.58,3.09-1.58-3.09Z"/>
          <path class="cls-3" d="M151.33,104.17l-3.15-3.15c1.05.01,2.1-.03,3.15,0v3.15Z"/>
          <path class="cls-4" d="M3.19,126.23c-.98.47-2.05.89-3.19,1.28v-1.28h3.19Z"/>
          <polygon class="cls-4" points="28.41 126.23 26.8 129.37 22.1 126.23 28.41 126.23"/>
          <path class="cls-16" d="M223.83,6.46h47.28c.27,8.37-.39,16.86,0,25.22-3.15-.02-6.3.02-9.46,0l-1.58-3.09-1.58,3.09c-3.15-.02-6.3.03-9.46,0,6.2-36.09-24.12-14.94-44.13-25.22h18.91Z"/>
          <path class="cls-2" d="M261.65,31.67c-1.05,0-2.1,0-3.15,0l1.58-3.09,1.58,3.09Z"/>
          <path class="cls-15" d="M151.33,227.1v15.76l-95.87.05c-6.77-12.58,1.31-14.82,12.31-15.81,26.37-2.37,56.52.91,83.56,0Z"/>
          <path class="cls-16" d="M198.61,223.94c-5.59.51-16.24,6.33-25.23,3.13v18.93c-7.33,0-14.7,0-22.05,0v-18.91c9.42-.32,15.87-2.57,22.06-3.15,8.25-.78,16.91.54,25.22,0Z"/>
          <path class="cls-15" d="M526.42,6.46c70.34-.14,140.84.03,211.18,0l.02,18.93c-16.27.44-32.73-.66-49.02-.02-6.07.24-12.65-3.24-10.89,6.3-4.2,0-8.41,0-12.61,0l-1.58-3.09-1.58,3.09c-40.93.08-82,.05-122.93,0l-1.58-3.09-1.58,3.09c-4.2,0-8.41,0-12.61,0l-1.58-3.09-1.58,3.09c-7.35-.02-14.72.05-22.06,0-3.15-.02-6.3.03-9.46,0-1.05-.01-2.1.01-3.15,0-.44-4.74-9.01-4.74-9.46,0-3.11-.11-6.4.35-9.46,0-.31-.04-.73-1.91-1.73-2.38l-1.42,2.38c-2.85-.36-6.46-.09-9.46,0V6.46c24.12-.12,48.38.05,72.5,0Z"/>
          <path class="cls-1" d="M520.12,31.67c1.05,0,2.1,0,3.15,0,4.2,0,8.41,0,12.61,0,1.05,0,2.1,0,3.15,0,40.93.05,82,.08,122.93,0,1.05,0,2.1,0,3.15,0,4.2,0,8.41,0,12.61,0,2.1,0,4.2,0,6.3,0v22.06c-16.62-.2-40.17,2.32-55.38.26-6.04-.82-4.19-6.44-6.49-6.71-4.59-.54-23.18,3.27-32.68,3.3-.86-3.78,2.14-15.2-1.82-15.82-8.28-1.3-38.51-1.3-46.79,0-3.96.62-.96,12.03-1.82,15.82-15.59-.37-33.54,2.66-47.28-6.3.17-1.97.19-4.35,0-6.3l6.3-6.3c7.35.05,14.72-.02,22.06,0Z"/>
          <path class="cls-8" d="M709.24,31.67v25.22c-2.09.09-4.23-.16-6.3,0-3.42-5.29-12.96-3.08-18.91-3.15v-22.06c8.4,0,16.95,0,25.22,0Z"/>
          <path class="cls-14" d="M734.45,31.67v22.06h-25.22v-22.06c8.39,0,16.83,0,25.22,0Z"/>
          <path class="cls-2" d="M775.43,31.67v3.15c-13.56-.69-27.39.48-40.98,0v-3.15c12.47.01,28.69-.02,40.98,0Z"/>
          <path class="cls-2" d="M791.19,31.67c-1.05,0-2.1,0-3.15,0l1.58-3.09,1.58,3.09Z"/>
          <path class="cls-2" d="M854.23,31.67c-1.05,0-2.1,0-3.15,0l1.58-3.09,1.58,3.09Z"/>
          <path class="cls-13" d="M441.32,6.46c4.2-.03,8.41.02,12.61,0v25.22c-2.95.09-12.14-.53-12.61-.02-3.11,3.41,7.74,25.12-22.06,18.93V6.46c7.34-.08,14.72.05,22.06,0ZM450.76,9.59h-9.43v15.8h9.43v-15.8Z"/>
          <path class="cls-3" d="M999.22,31.67c-.43,6.15.72,12.98,0,18.91-.12.96-3.41,3.94-3.15,6.3-5.25.07-10.51,0-15.76,0,2.5-9.45-5.54-5.3-6.3-6.3s.74-12.51-3.15-15.76c5.05-.1,19.41-6.5,28.37-3.15Z"/>
          <path class="cls-15" d="M832.17,53.74v22.09c3.13.13,6.3-.13,9.46-.02v3.15c-19.89,0-40.01-.48-59.89,0,0-7.35,0-14.72,0-22.06,0-1.05.03-2.1,0-3.15,16.77.11,33.66-.15,50.43,0Z"/>
          <path class="cls-13" d="M942.49,56.89c-16.22,6.1,6.67,6.5,0,12.59-2.67,2.45-16.17-6.39-12.61,9.47-17.14.63-38.12,3.04-53.58,3.15l3.15-25.22c20.93.68,42.1-.38,63.04,0Z"/>
          <path class="cls-8" d="M775.43,34.82c2.09.11,4.21-.17,6.3-.02.2,6.29-.19,12.64,0,18.94.03,1.05,0,2.1,0,3.15-2,.3-4.55-.44-6.3,0-8-5.38-27.3-5.24-34.67,0-2.1-.07-4.2.03-6.3,0v-22.06c13.58.48,27.41-.69,40.98,0Z"/>
          <path class="cls-8" d="M951.94,56.89c6.68.1,15.1-.02,22.06,0,7.13,30.51-23.19,21.3-44.13,22.06-3.56-15.86,9.94-7.03,12.61-9.47,6.66-6.09-16.23-6.5,0-12.59,3.15.06,6.31-.05,9.46,0Z"/>
          <path class="cls-2" d="M879.45,56.89l-3.15,25.22c-7.06.05-13.99-3.16-22.06-3.15-4.2,0-8.41,0-12.61,0v-3.15c3.98.14,8.77.42,12.61,0,2.36-.26,18.8-3.76,18.95-4.73,2-12.86-5.31-12.76-18.95-14.18-7.1-.74-14.86.51-22.06,0v-3.15c16.54.15,32.77,2.68,47.28,3.15Z"/>
          <path class="cls-13" d="M974.01,50.58c.77,1,8.81-3.15,6.3,6.3-2.1,0-4.2,0-6.3,0-6.97-.02-15.38.1-22.06,0v-3.15c7.53-.14,16.16,2.09,22.06-3.15Z"/>
          <path class="cls-5" d="M970.85,34.82c3.89,3.25,2.37,14.74,3.15,15.76-5.9,5.24-14.53,3.01-22.06,3.15,2.67-7.77-2.67-16.45-3.15-22.06,6.08.06,13.26,3.32,22.06,3.15Z"/>
          <path class="cls-17" d="M1144.21,271.22c16.74-.37,33.68.01,50.43,0-.27,6.07,1.59,17.94-1.38,22.27-5.97,8.73-58.6-1.21-71.1-.23,1.86-7.4-3.16-15.99-3.17-22.05,8.37-.32,16.84.18,25.22,0Z"/>
          <path class="cls-17" d="M1046.5,271.22h40.98c-6.85.4-19.82,5.86-29.82,6.42-26.86,1.52-54.15-4.91-82.23-3.42-7.11.38-38.94,3.53-40.99,6.29-10.09,13.64,10.3,4.71,8.04,15.92-5.25.06-10.52-.14-15.76,0v-25.22h119.78Z"/>
          <path class="cls-16" d="M806.95,271.22v25.22c-32.52.27-65.19-.2-97.71,0-.18-8.51,1.6-17.38-3.15-25.22h100.86Z"/>
          <path class="cls-17" d="M873.14,271.22h6.3l22.12,4.95c1.33,24.42.32,14.21-14.45,16.98-3.73.7-7.25,3.24-7.67,3.29-7.86.86-17.03-.27-25.22,0-15.68.51-31.58-.13-47.28,0v-25.22h66.19Z"/>
          <path class="cls-16" d="M977.16,318.5l-1.58,3.09-1.57-3.09c1.05.01,2.1,0,3.15,0Z"/>
          <path class="cls-4" d="M346.76,6.46v3.15c-5.44,5.81-2.84,14.56-3.15,22.06-7.35-.07-14.72.04-22.06,0-1.05,0-2.1,0-3.15,0,1.75-9.87-8.24-9.37-6.3,0-3.15-.01-6.3,0-9.46,0l-.08-4.2c-9.87-3.69-5.77-11.9-6.22-21.02,16.74-.14,33.71.57,50.43,0Z"/>
          <path class="cls-2" d="M296.33,6.46c.45,9.12-3.65,17.33,6.22,21.02l.08,4.2c-2.1,0-4.2,0-6.3,0-8.39-.02-16.82.05-25.22,0-.39-8.36.27-16.85,0-25.22,8.39,0,16.83.07,25.22,0Z"/>
          <path class="cls-13" d="M365.67,6.46c-3.57.34-12.05,6.3-18.91,3.15v-3.15c4.65-.16,16.38,1.06,18.91,0Z"/>
          <path class="cls-3" d="M394.04,6.46c2,4.81,8.49,5.12,9.46,0,2.1-.04,4.2.03,6.3,0l1.58,3.09c2.12-.54,1.18-2.31,1.58-3.09,2.1-.03,4.2.02,6.3,0v47.28c-4.85-.13-24.33.9-25.23.02-1.27-1.25,1.3-20.85.03-22.1-.9-.89-20.38.14-25.23.02-8.38-.21-16.83.08-25.22,0,.31-7.5-2.29-16.25,3.15-22.06,6.86,3.15,15.34-2.81,18.91-3.15,8.96-.86,19.12.28,28.37,0Z"/>
          <path class="cls-13" d="M403.49,6.46c-.97,5.12-7.46,4.81-9.46,0,3.15-.1,6.31.07,9.46,0Z"/>
          <path class="cls-13" d="M409.8,6.46c1.05-.02,2.1.01,3.15,0-.39.78.54,2.55-1.58,3.09l-1.58-3.09Z"/>
          <path class="cls-17" d="M680.87,271.22l.02,18.93c-13.69-1.83-32.68,2.44-45.48.05-4.32-.81-.25-11.14-1.8-12.69-1.28-1.28-17.04,3.4-18.93-6.29,22.02,0,44.17,0,66.19,0Z"/>
          <path class="cls-2" d="M589.46,271.22c-.32,8.35,0,16.85,0,25.22-8.39-.08-16.83.04-25.22,0,1.75-5.43-1.24-18.19,3.15-25.22,7.35,0,14.72,0,22.06,0Z"/>
          <path class="cls-10" d="M416.1,246.01l3.15,25.22c-1.05,0-2.1,0-3.15,0-8.39,0-16.82-.01-25.22,0-5.25,0-10.51,0-15.76,0-17.82.02-35.76-.03-53.58,0l3.15-25.22c30.42-.03,60.99.11,91.41,0Z"/>
          <path class="cls-6" d="M491.75,246.01v25.22c-24.12.02-48.37-.03-72.5,0l-3.15-25.22c25.17-.09,50.48.03,75.65,0Z"/>
          <path class="cls-10" d="M564.25,246.01v25.22c-24.12.02-48.37-.02-72.5,0v-25.22c24.12-.03,48.38.1,72.5,0Z"/>
          <path class="cls-2" d="M557.94,296.44c-12.58-.09-25.25.05-37.82,0,8.41-5.25,28.77-5.37,37.82,0Z"/>
          <path class="cls-8" d="M390.89,271.22v3.15c-5.05-.18-13.07,1.96-15.76-3.15,5.25,0,10.51,0,15.76,0Z"/>
          <path class="cls-14" d="M274.26,274.38l-3.15-3.15c2.12,0,2.93,3.15,3.15,3.15Z"/>
          <path class="cls-7" d="M274.26,223.94c6.58,7.61,44.62.36,47.3,3.13.93.97-.63,12.28-.02,15.78h72.5l-.02-12.64,192.29.03c-.09,4.14,1.57,10.42-3.15,12.61-3.5,0-11.25,3.12-18.91,3.15-24.12.1-48.38-.03-72.5,0-25.17.03-50.48-.09-75.65,0-30.42.11-60.99-.03-91.41,0-33.59.03-67.86,3.15-100.86,3.15-16.71,0-32.73-3.15-50.43-3.15v-18.93c8.97,3.2,19.63-2.63,25.22-3.13,23.44-2.13,51.47.3,75.65,0Z"/>
          <path class="cls-4" d="M539.03,50.58c16.73.39,33.69.06,50.43,0,9.5-.04,28.09-3.84,32.68-3.3,2.3.27.45,5.89,6.49,6.71,15.21,2.06,38.76-.46,55.38-.26,5.95.07,15.49-2.14,18.91,3.15-13.3,1.05-26.46,3.41-39.41,6.35-3.71.84-10.26,1.12-4.72,6.22,2.91,2.68,48.49,10.95,50.1,12.98,2.33,2.92-3.2,15.23,5.5,18.14,7.61,2.55,31.73.3,42.11.44,8.39.11,16.83-.09,25.22,0,103.92,1.06,208.11-.08,312.05,0l3.15,25.22h-78.8l-1.58-3.09-1.58,3.09h-12.61c-.44-4.74-9.01-4.74-9.46,0-23.07,0-46.27-.01-69.34,0-2.08-4.97-13.68-4.97-15.76,0-10.48,0-21.04,0-31.52,0-36.23-8.59-75.41,1.77-111.9-5.67-10.05,5.82-52.8-1.59-55.16,5.67-22.02.02-44.17-.03-66.19,0-2.61-6.22-6.53-16.33-10.08-21.54-1.05-1.54-5.45-.19-5.68-.53-3.52-5.21,5.05-39.08-3.15-47.28-3.08-3.08-3.16-2.84-7.55-3.33-36.17-4.02-86.76.36-124.83.17-1.05,0-2.1,0-3.15,0v-3.15c-.35-2.37,3.08-5.47,3.15-6.3,13.74,8.96,31.69,5.94,47.28,6.3Z"/>
          <path class="cls-10" d="M876.29,126.23c10.48,0,21.04,0,31.52,0,5.25,0,10.51,0,15.76,0,23.07-.01,46.27,0,69.34,0h31.52l.02,25.23c-25.37-.4-27.57-5.49-25.23,22.05v3.15c-15.72.15-31.56-.2-47.28,0l-6.3-3.15.02-22.08c-53.54-.1-107.23.2-160.77.02,9.02-7.9,66.24.03,69.36-3.14l-.02-18.93h-118.2c-6.78,0-4.27,17.34-1.58,22.06-3.14-.07-6.32.17-9.46,0-5.23-.28-10.55.23-15.78.02,1.3-6.9-1.81-19.63.02-25.23,55.64-.06,111.42.03,167.06,0Z"/>
          <path class="cls-10" d="M611.53,126.23l-1.81,25.27-23.42-.04.02-25.23c8.39-.01,16.82.01,25.22,0Z"/>
          <path class="cls-2" d="M390.89,126.23c2.93,5.24,3.2,15.82,3.15,22.06l-12.61,3.15c-2.1,0-4.2,0-6.3,0-10.47-4.43-5.45-15.62-6.3-25.22,7.35-.05,14.72.04,22.06,0Z"/>
          <path class="cls-13" d="M394.04,148.3v3.15c-4.2-.01-8.41.01-12.61,0l12.61-3.15Z"/>
          <path class="cls-13" d="M630.44,176.66c-1.05.02-2.1-.02-3.15,0l1.58-3.09,1.58,3.09Z"/>
          <path class="cls-13" d="M617.83,176.66c-1.05.01-2.1-.01-3.15,0l1.58-3.09,1.58,3.09Z"/>
          <path class="cls-1" d="M1096.93,126.23h22.06c.44,6.43,2.66,12.48,3.15,18.91-7.46-.13-10.93-2.12-9.46,6.3-5.17-.23-10.7.53-15.76,0-.46-.05-3.78-2.68-7.63-3.29-4.19-.66-16.76,1.04-17.6.16-.96-1,1.73-17.78-3.14-22.09h28.37Z"/>
          <path class="cls-8" d="M1068.57,126.23c4.87,4.31,2.18,21.08,3.14,22.09.85.89,13.41-.82,17.6-.16,3.85.61,7.17,3.24,7.63,3.29-24.85-3.46-59.73,13.81-47.28-25.22h18.91Z"/>
          <path class="cls-1" d="M1194.65,151.45c-8.39-.07-16.83.1-25.22,0v-22.08c21.08-1.67,28.1-1,25.22,22.08Z"/>
          <path class="cls-8" d="M1194.65,176.66c-24.6.38-49.47.36-74.12.05-5.33-.07-14.01,2.02-17.29-3.21,26.07.13,62.43-3.2,86.84-.09,3.19.41,3.53.04,4.56,3.24Z"/>
          <path class="cls-8" d="M1071.72,173.51c-10.12,5.36-31.5,5.25-40.98,0,13.62-.16,27.36.19,40.98,0Z"/>
          <path class="cls-8" d="M1024.44,173.51c-4.6.05-15.94,3.06-25.22,3.15v-3.15h25.22Z"/>
          <path class="cls-8" d="M1122.15,145.14c.16,2.08-.11,4.22,0,6.3-3.15-.1-6.31.14-9.46,0-1.47-8.43,2-6.43,9.46-6.3Z"/>
          <path class="cls-8" d="M1090.63,173.51c1.05-.01,2.1,0,3.15,0l-1.58,3.09-1.58-3.09Z"/>
          <path class="cls-14" d="M784.89,151.45c53.54.18,107.23-.12,160.77-.02l-.02,22.08v3.15c-54.46.68-109.52-2.01-163.9,0v-25.22c1.05,0,2.1,0,3.15,0Z"/>
          <path class="cls-8" d="M951.94,176.66c-2.1.03-4.2-.03-6.3,0v-3.15l6.3,3.15Z"/>
          <path class="cls-8" d="M781.73,176.66c-1.05.04-2.11-.06-3.15,0l3.15-3.15v3.15Z"/>
          <path class="cls-12" d="M734.45,151.45c-2.69-4.72-5.2-22.06,1.58-22.06h118.2l.02,18.93c-3.12,3.16-60.34-4.76-69.36,3.14-1.05,0-2.1,0-3.15,0-15.71-.06-31.58.33-47.28,0Z"/>
          <path class="cls-13" d="M368.82,126.23c.86,9.6-4.16,20.79,6.3,25.22-17.82-.06-35.76.07-53.58,0l-3.15-22.06v-3.15c16.75-.34,33.67.12,50.43,0Z"/>
          <path class="cls-8" d="M318.39,129.38l3.15,22.06c-8.39-.03-16.83.06-25.22,0l-.02-22.08,22.08.02Z"/>
          <path class="cls-13" d="M781.73,78.95c19.88-.48,40,0,59.89,0,4.2,0,8.41,0,12.61,0-18.35,9.31-51.42-2.66-68.68,5.32-7.31,3.38-2.93,10.92-3.81,16.74-8.39-.09-16.83.11-25.22,0l-.02-22.08c8.38-.14,16.85.22,25.23.02Z"/>
          <path class="cls-18" d="M1071.72,252.31v18.91h-25.22c4.33-3.75,2.31-18.02,3.16-18.91,1.08-1.12,17.74.74,22.05,0Z"/>
          <path class="cls-15" d="M624.13,56.89c2.84,8.45-2.27,16.45-3.15,22.06h-63.04c-20.97,0-42.07,0-63.04,0l-3.15-25.22c38.07.18,88.66-4.19,124.83-.17,4.4.49,4.47.24,7.55,3.33Z"/>
          <path class="cls-3" d="M627.29,104.17c-15.02.73-42.83,40.84-37.82,0,.53-.03,2.49-2.6,5.01-2.92,6.65-.83,19.29,1.43,23.56-1.6,5.33-3.77,2.07-15.1,2.95-20.7.88-5.61,5.99-13.62,3.15-22.06,8.2,8.2-.37,42.07,3.15,47.28Z"/>
          <path class="cls-18" d="M453.93,31.67c3-.09,6.61-.36,9.46,0,1.06.14,3.03-.26,3.15,0,4.74,9.98-9.42,19.35,22.06,18.91v3.15c-19.92-.05-39.98.26-59.89,0-3.15-.04-6.31.08-9.46,0v-3.15c29.8,6.19,18.95-15.52,22.06-18.93.47-.52,9.66.1,12.61.02Z"/>
          <path class="cls-16" d="M368.82,34.82c16.72-2.03,20.94,2.26,18.93,18.91-6.28.22-12.65-.26-18.93,0v-18.91Z"/>
          <path class="cls-2" d="M312.09,31.67c-1.93-9.37,8.05-9.87,6.3,0-2.1,0-4.2,0-6.3,0Z"/>
          <path class="cls-13" d="M475.99,31.67c3.14.11,6.31-.04,9.46,0,1.05.01,2.1-.01,3.15,0-.32,2.36,3.07,5.47,3.15,6.3.19,1.96.17,4.34,0,6.3-.07.83-3.5,3.94-3.15,6.3-31.48.44-17.33-8.93-22.06-18.91,3.06.35,6.35-.11,9.46,0Z"/>
          <path class="cls-4" d="M498.05,31.67l-6.3,6.3c-.08-.84-3.48-3.95-3.15-6.3,3.15.03,6.3-.02,9.46,0Z"/>
          <path class="cls-3" d="M485.45,31.67c-3.15-.04-6.31.11-9.46,0,.44-4.74,9.01-4.74,9.46,0Z"/>
          <path class="cls-3" d="M665.11,31.67c-1.05,0-2.1,0-3.15,0l1.58-3.09,1.58,3.09Z"/>
          <path class="cls-3" d="M466.53,31.67c-.13-.26-2.09.14-3.15,0l1.42-2.38c1.01.48,1.43,2.35,1.73,2.38Z"/>
          <path class="cls-3" d="M523.27,31.67c-1.05,0-2.1,0-3.15,0l1.58-3.09,1.58,3.09Z"/>
          <path class="cls-3" d="M539.03,31.67c-1.05,0-2.1,0-3.15,0l1.58-3.09,1.58,3.09Z"/>
          <path class="cls-8" d="M539.03,50.58c.86-3.78-2.14-15.2,1.82-15.82,8.28-1.3,38.51-1.3,46.79,0,3.96.62.96,12.03,1.82,15.82-16.74.06-33.7.39-50.43,0Z"/>
          <path class="cls-3" d="M702.93,56.89c2.08-.16,4.21.09,6.3,0,8.32-.34,16.88-.11,25.22,0,2.1.03,4.21-.07,6.3,0,13.93.45,15.61,4.79,34.67,0,1.76-.44,4.3.3,6.3,0,0,7.35,0,14.72,0,22.06-8.38.2-16.85-.15-25.23-.02l.02,22.08c-10.39-.14-34.5,2.11-42.11-.44-8.71-2.92-3.18-15.22-5.5-18.14-1.61-2.02-47.19-10.29-50.1-12.98-5.54-5.11,1.01-5.38,4.72-6.22,12.95-2.94,26.12-5.3,39.41-6.35Z"/>
          <path class="cls-4" d="M734.45,53.74v3.15c-8.34-.11-16.89-.34-25.22,0v-3.15h25.22Z"/>
          <rect class="cls-4" x="441.33" y="9.59" width="9.43" height="15.8"/>
          <path class="cls-16" d="M854.23,56.89v18.91c-3.84.42-8.63.14-12.61,0-3.15-.11-6.32.15-9.46.02v-18.93c7.21.51,14.97-.74,22.07,0Z"/>
          <path class="cls-4" d="M775.43,56.89c-19.06,4.79-20.75.45-34.67,0,7.37-5.24,26.67-5.38,34.67,0Z"/>
          <path class="cls-5" d="M854.23,56.89c13.64,1.42,20.95,1.32,18.95,14.18-.15.96-16.59,4.47-18.95,4.73v-18.91Z"/>
          <path class="cls-13" d="M876.29,126.23c-55.64.03-111.42-.06-167.06,0,2.36-7.26,45.11.15,55.16-5.67,36.48,7.44,75.67-2.92,111.9,5.67Z"/>
          <path class="cls-13" d="M923.57,126.23c-5.25,0-10.51,0-15.76,0,2.08-4.97,13.68-4.97,15.76,0Z"/>
          <path class="cls-13" d="M1002.37,126.23h-9.46c.44-4.74,9.01-4.74,9.46,0Z"/>
          <polygon class="cls-13" points="1018.13 126.23 1014.98 126.23 1016.56 123.14 1018.13 126.23"/>
        </g>
        <g>
          <path class="cls-9" d="M121.99,40.21h1451.26c45.8,0,82.99,37.19,82.99,82.99v56.23c0,45.8-37.19,82.99-82.99,82.99H121.99c-45.8,0-82.99-37.19-82.99-82.99v-56.23c0-45.8,37.19-82.99,82.99-82.99Z"/>
          <path d="M1481.7,36.18c-2.66-1.89-21.52-2.15-22.26-1.31-.51.58-.11,2.91.11,5.34h24.62c-.27-1.53-.94-2.94-2.47-4.03ZM1695.22,121.61c-.08-6.09-.6-12.07-1.55-17.91-1.38-8.59-3.67-16.88-6.76-24.77-2.78-7.15-6.23-13.96-10.25-20.36-.99-1.58-2.02-3.14-3.07-4.67-4.46-6.43-9.51-12.41-15.08-17.86-1.73-1.69-3.5-3.33-5.33-4.91-1.65-1.44-3.34-2.84-5.08-4.19-4.17-3.25-8.56-6.23-13.14-8.93-.4-.24-.8-.47-1.21-.69-7.86-4.52-16.27-8.18-25.1-10.86-3.36-1.03-6.79-1.91-10.27-2.64h0c-8.11-1.71-16.51-2.61-25.13-2.61H121.98c-12.32,0-24.22,1.84-35.45,5.25-16.86,5.13-32.19,13.83-45.1,25.21-4.7,4.14-9.08,8.64-13.1,13.46-2.31,2.77-4.5,5.64-6.56,8.61-2.41,3.46-4.64,7.04-6.68,10.75-1.5,2.71-2.89,5.49-4.19,8.32-.92,2.02-1.78,4.07-2.59,6.14-2.76,7.06-4.88,14.44-6.28,22.07-.42,2.24-.78,4.51-1.06,6.8-.64,5.04-.97,10.17-.97,15.38v56.23c0,7.01.59,13.88,1.74,20.57.84,4.96,1.99,9.82,3.42,14.56h0c.63,2.11,1.32,4.18,2.06,6.23.38,1.06.78,2.11,1.19,3.15,3.05,7.78,6.88,15.16,11.4,22.07,4.19,6.4,8.96,12.39,14.24,17.89h.01c2.46,2.56,5.02,5.01,7.69,7.33,11.61,10.16,25.14,18.16,39.98,23.36,1.93.68,3.9,1.31,5.88,1.89,8.94,2.64,18.31,4.27,27.97,4.77,2.12.11,4.25.17,6.4.17h1451.26c7.59,0,15.01-.7,22.22-2.03,4.86-.9,9.62-2.08,14.26-3.55,1.9-.6,3.78-1.24,5.64-1.93,14.12-5.2,27.02-12.95,38.15-22.69,4.95-4.33,9.55-9.06,13.75-14.14,2.22-2.69,4.33-5.48,6.32-8.35,5.32-7.67,9.78-15.98,13.24-24.79.8-2.02,1.54-4.08,2.23-6.16,1.38-4.15,2.54-8.39,3.47-12.72.42-1.97.8-3.96,1.12-5.97,1.05-6.4,1.59-12.97,1.59-19.66v-56.23c0-.53,0-1.06,0-1.59ZM1656.23,179.43c0,.7,0,1.4-.03,2.09v.13c-.01.48-.03.97-.06,1.45,0,.09-.01.17-.01.26,0,.17,0,.34-.02.51-.02.44-.05.87-.08,1.31,0,.04,0,.08,0,.12,0,.26-.03.53-.06.79-.04.57-.09,1.15-.15,1.72,0,.03,0,.06,0,.09-.07.68-.15,1.36-.23,2.03,0,.03,0,.06,0,.09-.08.63-.17,1.26-.27,1.89-.01.1-.03.21-.05.31-.09.63-.2,1.26-.31,1.88-.09.5-.18,1-.28,1.49-.02.12-.05.24-.07.36-.01.06-.02.12-.04.18-.14.68-.28,1.35-.44,2.02-.13.59-.28,1.18-.43,1.76-.04.17-.08.33-.12.48-.12.46-.24.9-.36,1.34-.08.27-.15.53-.23.79-.15.52-.31,1.04-.47,1.56-.11.37-.23.75-.36,1.12-.03.09-.06.17-.09.26-.02.07-.05.14-.07.21-.07.24-.15.47-.23.69-.18.53-.36,1.06-.56,1.58-.23.63-.47,1.27-.72,1.89-.2.51-.41,1.02-.62,1.53-.23.55-.46,1.09-.7,1.63-.12.27-.24.54-.37.81-.42.94-.87,1.87-1.34,2.79-.13.26-.26.53-.4.79-.03.05-.05.1-.08.15-.27.54-.56,1.07-.85,1.6-.31.58-.64,1.16-.97,1.73-.21.37-.43.74-.65,1.1,0,.02-.02.04-.04.06-.16.27-.33.55-.5.82,0,.02-.03.05-.04.07-.16.25-.31.5-.48.76,0,.02-.03.04-.04.06-.04.07-.08.14-.13.21-.14.24-.3.48-.47.71-.22.36-.45.72-.7,1.07-.06.09-.12.18-.18.27-.33.49-.66.97-1.01,1.45-.24.34-.48.68-.74,1.02-.13.19-.27.39-.42.58,0,.01,0,.01,0,.02-.06.07-.13.15-.18.22-.03.04-.05.07-.08.11-.31.41-.63.83-.96,1.24-.32.43-.67.86-1.01,1.27-.04.04-.07.07-.1.11-.04.05-.08.1-.12.15-.08.1-.16.2-.25.3,0,.02-.03.03-.04.05-.31.37-.62.76-.95,1.12-.18.21-.36.42-.55.62-.16.19-.33.38-.49.57-.15.16-.3.32-.45.48-.06.07-.13.15-.2.22-.29.33-.59.65-.9.97-.09.1-.18.19-.28.29-.03.03-.06.07-.1.1-.38.41-.77.81-1.17,1.2-.38.39-.77.77-1.17,1.15-.31.3-.62.59-.93.88-.36.34-.72.67-1.08.99-.05.05-.11.1-.16.15-.22.2-.44.39-.66.58l-.21.18c-.08.08-.16.14-.24.21-.08.07-.15.13-.23.19-.03.03-.06.05-.09.08-.19.16-.37.32-.56.48-.66.56-1.33,1.11-2.01,1.64-.48.38-.98.76-1.47,1.13-.07.05-.14.11-.21.17h-.01c-.06.04-.11.09-.17.13-.12.09-.23.17-.35.25-.34.26-.68.5-1.03.74-.08.07-.17.13-.25.18-.03.02-.05.04-.08.06-.1.07-.2.15-.3.22-.24.17-.48.34-.72.5-.12.08-.23.15-.35.23-.21.14-.41.28-.62.42-.14.09-.28.19-.42.27-.36.25-.73.48-1.1.71-.15.1-.3.19-.46.28-.02.01-.03.03-.04.03-.02.01-.04.02-.05.03-.03.02-.05.03-.08.05-.04.03-.09.05-.13.08-.31.21-.62.4-.94.58-.34.2-.68.4-1.01.6-1.24.72-2.5,1.4-3.77,2.06-1.19.61-2.41,1.2-3.63,1.75-.56.25-1.12.5-1.68.74-.05.02-.11.05-.17.07-.62.26-1.24.52-1.87.76-.77.31-1.54.6-2.32.88-.48.18-.96.35-1.45.51-.03.01-.05.01-.07.02-.59.2-1.18.4-1.78.58-.04.01-.09.03-.13.04-.59.19-1.18.36-1.78.54-.12.03-.24.07-.36.1-.54.15-1.07.3-1.61.43-.14.04-.28.08-.42.11-.54.14-1.08.27-1.62.4-.05.01-.09.02-.14.03-.58.14-1.18.27-1.77.39-.09.02-.18.03-.27.05-.67.14-1.34.27-2.01.39-.66.12-1.32.23-1.98.33-.02,0-.05.01-.07.01-.53.08-1.07.16-1.61.23-.22.03-.43.05-.65.08-.09.01-.17.02-.26.03-.04,0-.09,0-.13.02-.47.07-.93.11-1.4.16-.03,0-.07.01-.1.01-.64.07-1.27.12-1.91.17-.11.01-.22.02-.32.03-.65.05-1.3.09-1.95.12h-.03c-.71.04-1.41.06-2.12.08s-1.42.03-2.14.03H121.98c-.66,0-1.32-.01-1.98-.03-.26,0-.51-.01-.76-.02-.72-.02-1.44-.06-2.16-.1-.67-.04-1.34-.09-2-.14-.04,0-.08-.01-.11-.01-.32-.02-.65-.06-.97-.09-.33-.03-.65-.07-.97-.1-.36-.04-.71-.08-1.06-.13-.32-.03-.63-.07-.94-.11-.84-.11-1.68-.23-2.51-.37-.49-.08-.97-.16-1.46-.25-.65-.12-1.3-.25-1.95-.38-.32-.07-.65-.13-.97-.21-.02,0-.04-.01-.06-.01-.31-.07-.61-.13-.91-.21-.65-.15-1.29-.3-1.93-.47-1.28-.33-2.54-.69-3.79-1.08-.69-.21-1.37-.43-2.05-.66-1.17-.4-2.33-.82-3.47-1.27-.62-.24-1.23-.49-1.84-.74-.16-.06-.32-.13-.47-.2-.11-.04-.22-.08-.33-.13-.31-.14-.62-.27-.92-.41-.03-.02-.07-.03-.11-.05-.32-.14-.64-.29-.96-.44-.06-.02-.12-.05-.18-.08l-.06-.03c-.46-.21-.91-.42-1.35-.64-.43-.21-.85-.42-1.27-.63-.21-.11-.42-.22-.63-.33-.37-.19-.73-.38-1.09-.57-.83-.45-1.64-.91-2.45-1.38-.35-.2-.7-.41-1.04-.62-.17-.1-.34-.2-.51-.31-.77-.46-1.52-.94-2.26-1.44-.28-.18-.55-.37-.83-.55h0v-.02c-.05-.03-.1-.06-.14-.09s-.08-.05-.12-.08c-.31-.21-.62-.42-.92-.64-.06-.04-.12-.09-.18-.13-.03-.02-.06-.04-.09-.06-.17-.11-.34-.23-.51-.35-.18-.13-.35-.26-.53-.39-.22-.15-.42-.31-.63-.46h-.01c-.21-.17-.42-.33-.63-.49-.21-.15-.42-.31-.63-.48-.21-.16-.42-.33-.63-.5-.06-.05-.12-.09-.18-.14-.16-.12-.32-.25-.47-.37-.16-.13-.31-.26-.46-.38-.02-.02-.04-.03-.06-.05-.1-.07-.19-.15-.28-.23-.03-.02-.05-.04-.08-.06-.06-.05-.13-.1-.19-.15-.1-.09-.21-.17-.31-.27-.18-.15-.37-.3-.55-.46-.11-.1-.21-.19-.31-.28-.51-.43-1.01-.87-1.5-1.32-.48-.44-.94-.87-1.41-1.32-.47-.44-.93-.88-1.38-1.34l-.09-.09c-.28-.28-.55-.56-.82-.84-.28-.28-.55-.56-.82-.85-.02-.02-.03-.03-.05-.05-.47-.49-.92-.98-1.36-1.48-.26-.28-.51-.57-.76-.86-.09-.1-.18-.2-.26-.29-.3-.35-.6-.7-.89-1.05-.27-.32-.53-.64-.79-.96-.08-.09-.15-.18-.22-.27-.21-.26-.42-.52-.64-.79-.18-.24-.37-.49-.55-.73-.02-.03-.05-.06-.07-.09-.2-.26-.4-.5-.59-.76h0c-.35-.47-.69-.93-1.02-1.4-.2-.29-.41-.57-.6-.86-.28-.38-.54-.77-.8-1.16-.27-.39-.52-.78-.78-1.18-.11-.17-.22-.34-.33-.52-.16-.24-.31-.48-.46-.73-.26-.42-.52-.84-.77-1.26-.52-.85-1.01-1.7-1.48-2.57-.26-.46-.51-.92-.75-1.39-.22-.4-.42-.8-.63-1.21-.23-.45-.45-.9-.66-1.35-.21-.42-.41-.85-.61-1.28-.01-.03-.03-.06-.04-.09-.2-.42-.38-.84-.57-1.27-.1-.2-.19-.41-.27-.62-.11-.24-.21-.48-.31-.72-.1-.24-.2-.49-.3-.73-.3-.72-.58-1.45-.86-2.18-.01-.02-.02-.05-.02-.07-.18-.47-.35-.93-.51-1.4-.04-.08-.07-.16-.09-.25-.17-.46-.32-.92-.47-1.39-.09-.24-.17-.48-.24-.73-.13-.38-.25-.76-.36-1.15-.06-.19-.12-.39-.18-.59-.02-.06-.04-.13-.05-.19-.08-.24-.15-.48-.21-.73-.06-.17-.1-.35-.15-.52-.02-.06-.03-.11-.05-.17,0-.01-.01-.02-.01-.03-.08-.28-.15-.56-.22-.84-.08-.28-.14-.56-.21-.84-.16-.57-.29-1.15-.42-1.73-.12-.51-.23-1.01-.33-1.52-.03-.12-.06-.25-.08-.37-.1-.46-.19-.92-.27-1.38-.17-.9-.32-1.81-.46-2.72-.08-.54-.16-1.08-.23-1.62-.02-.12-.03-.25-.05-.38-.06-.49-.12-.99-.17-1.49v-.05c-.05-.39-.09-.79-.12-1.18-.04-.32-.06-.65-.09-.97-.02-.22-.03-.43-.05-.65-.06-.77-.1-1.55-.14-2.33-.03-.56-.05-1.12-.06-1.68-.02-.71-.03-1.42-.03-2.14v-56.23c0-.7.01-1.4.03-2.09,0-.09,0-.17.01-.25.01-.58.03-1.17.06-1.75.01-.12.01-.24.02-.37.03-.52.06-1.04.1-1.56.02-.29.04-.58.07-.87.01-.12.02-.23.03-.35.02-.32.05-.64.09-.95,0-.15.02-.3.04-.44,0-.05.01-.09.01-.14.06-.6.14-1.2.21-1.79.07-.54.14-1.09.23-1.63.04-.3.08-.58.14-.88,0-.03,0-.07.01-.1.06-.39.12-.77.19-1.16.09-.54.19-1.07.3-1.61.07-.36.14-.72.22-1.08.1-.48.2-.95.31-1.43.03-.15.07-.31.11-.47.14-.6.29-1.2.44-1.8.19-.73.38-1.45.59-2.17.17-.59.35-1.17.53-1.76.2-.65.41-1.3.63-1.94.12-.35.24-.71.37-1.06.19-.54.39-1.08.59-1.61.26-.69.53-1.37.81-2.05.21-.51.42-1.03.65-1.54.01-.04.02-.07.04-.11h.01s.03-.09.05-.13c.07-.16.14-.32.21-.48.17-.4.35-.79.54-1.18.15-.34.31-.67.47-1.01.24-.51.49-1.02.75-1.53.02-.03.03-.07.05-.1.16-.32.33-.62.49-.94.09-.18.19-.37.29-.55.21-.41.43-.82.66-1.22.27-.5.55-.99.84-1.48.52-.9,1.06-1.79,1.61-2.66h.01c.35-.57.71-1.12,1.08-1.68.03-.04.06-.09.09-.13.19-.29.39-.57.59-.86.35-.51.7-1.01,1.06-1.51.16-.23.32-.45.48-.67.13-.18.26-.35.39-.52.11-.14.21-.28.32-.42.34-.45.68-.9,1.03-1.34.41-.52.82-1.03,1.25-1.54.26-.32.53-.64.81-.96.35-.42.72-.84,1.09-1.25.19-.22.38-.43.58-.65.16-.18.33-.37.5-.55.11-.12.22-.24.33-.35.26-.27.51-.54.77-.8.09-.1.18-.2.28-.29.23-.25.47-.5.71-.74.05-.05.11-.11.16-.15.5-.5.99-.99,1.51-1.48.28-.26.56-.53.85-.79.28-.27.57-.53.86-.78.38-.35.77-.69,1.16-1.03.31-.28.63-.55.95-.81.08-.07.16-.14.24-.2.11-.1.22-.19.33-.27.3-.26.6-.5.91-.75.21-.17.42-.34.64-.5.14-.12.29-.23.43-.34.46-.36.92-.71,1.38-1.05.46-.35.92-.68,1.39-1.01.53-.38,1.06-.75,1.6-1.11.01-.01.03-.02.04-.02.35-.24.7-.48,1.05-.7.77-.51,1.54-1,2.32-1.47.51-.31,1.01-.61,1.53-.91.08-.05.16-.1.25-.14.35-.21.71-.41,1.07-.6.35-.2.7-.4,1.06-.58.21-.12.42-.23.64-.34.38-.21.77-.41,1.17-.6.03-.02.07-.03.1-.05.28-.15.58-.3.87-.43.07-.04.14-.07.21-.1.14-.08.29-.15.44-.21.09-.05.18-.1.28-.14.35-.18.7-.34,1.06-.5.49-.22.99-.44,1.49-.66.04-.02.08-.03.12-.05.26-.11.52-.23.78-.33.01,0,.01-.01.02-.01.9-.38,1.82-.75,2.75-1.09.02,0,.03,0,.05-.02.03-.01.05-.02.08-.03.01-.01.03-.01.04-.01.38-.15.76-.28,1.14-.42.36-.13.73-.26,1.1-.38.08-.03.15-.06.23-.08.04,0,.08-.03.12-.04.04-.01.08-.03.12-.04.02-.01.03-.01.05-.02.35-.13.72-.24,1.08-.35.05-.01.09-.03.14-.04.05-.02.11-.04.16-.05.12-.04.24-.08.36-.12.32-.1.64-.2.96-.29.03-.01.05-.01.08-.02.2-.06.41-.13.62-.19.03-.01.05-.01.08-.02.23-.07.47-.13.7-.19.44-.13.88-.25,1.33-.36h.01c.05-.01.09-.03.14-.04.61-.16,1.23-.31,1.85-.45.64-.15,1.29-.29,1.95-.43.02,0,.05-.01.07-.01,1.35-.28,2.7-.52,4.07-.73.57-.09,1.14-.17,1.71-.24.21-.03.41-.06.62-.08.4-.06.8-.1,1.2-.14.04-.01.09-.01.13-.01.31-.05.62-.08.94-.1.03-.01.06-.01.09-.01.35-.04.7-.07,1.06-.1.09-.01.17-.01.26-.02.29-.02.59-.04.89-.06.43-.03.86-.06,1.29-.08,1.46-.08,2.94-.12,4.43-.12h1451.26c.72,0,1.43.01,2.14.03.61,0,1.21.04,1.81.07.68.03,1.36.07,2.04.12.67.05,1.35.11,2.02.17.37.04.73.08,1.1.12.3.03.61.06.91.1.53.06,1.05.13,1.58.21.2.02.41.05.61.08.03.01.07.01.1.02.28.04.56.09.84.13.28.05.56.1.84.14.65.11,1.31.23,1.96.36.31.06.62.12.92.18.31.06.62.13.92.2.06.01.13.02.2.04l.07.02,1.22.28.1.02.08.02.21.05c.09.02.18.05.28.07.04.01.09.02.13.03.26.07.51.13.77.2.29.07.59.15.89.24,1.27.34,2.52.72,3.77,1.12.57.18,1.15.38,1.72.57.08.03.17.07.27.1.07.03.15.05.22.08.44.15.87.31,1.3.48.06.02.12.04.18.06.57.22,1.14.44,1.7.66.09.04.18.08.28.12.24.09.47.19.7.29.31.13.62.26.93.39.59.25,1.17.51,1.75.78.43.19.86.4,1.29.6.28.14.56.27.83.41.03.02.07.03.1.05,0,0,.02.01.03.01.42.21.84.42,1.26.64.57.3,1.14.6,1.7.91.57.31,1.13.63,1.69.95.55.33,1.11.65,1.66.99.55.34,1.09.68,1.63,1.02.02.01.04.03.06.04,1.06.68,2.1,1.38,3.12,2.11.6.43,1.19.86,1.78,1.3.5.37,1,.75,1.49,1.14.53.41,1.04.83,1.56,1.26.41.33.81.68,1.22,1.03.49.42.97.84,1.45,1.27.45.41.89.82,1.34,1.24.02.02.05.04.07.06.46.44.92.88,1.38,1.33.27.26.53.52.78.78.09.09.18.18.27.27.26.26.52.53.77.8.35.36.69.73,1.03,1.1.11.12.22.24.33.36.08.09.16.17.24.26.02.03.05.06.08.09.34.38.67.76,1,1.14.41.46.8.93,1.19,1.4.08.1.16.19.23.29.07.09.15.17.22.26.2.24.41.49.59.74.02.02.04.04.05.06.04.05.08.1.12.15.05.06.1.12.14.18.29.35.57.71.83,1.07.26.34.52.68.76,1.02.01.01.02.02.02.03.27.35.53.71.78,1.07.29.4.58.8.84,1.21.1.13.19.25.27.38.02.03.04.06.05.09.37.54.73,1.08,1.08,1.63.28.42.55.85.81,1.29.28.44.54.88.8,1.33.13.2.25.4.36.61.12.2.24.41.36.62.32.56.63,1.12.93,1.69.3.55.59,1.1.87,1.66.3.6.6,1.19.88,1.79.18.37.36.74.53,1.12.1.21.2.43.29.64.22.49.44.98.65,1.48.18.42.35.84.52,1.26.04.08.07.16.1.24.29.72.57,1.44.84,2.18.22.58.43,1.16.63,1.75.12.33.23.66.34.99.06.18.12.36.17.54.11.33.22.67.32,1.01.16.51.32,1.03.47,1.55.18.63.35,1.26.52,1.9.13.47.25.95.36,1.44.04.13.07.26.1.39,0,.04,0,.07.02.11.02.07.03.15.05.22.13.56.26,1.12.38,1.69.14.65.27,1.3.39,1.96.12.65.23,1.3.34,1.96.07.41.13.82.19,1.23.13.82.24,1.66.32,2.49.05.42.1.84.14,1.26.05.45.09.89.13,1.34,0,.04.01.09.01.13v.04c.03.33.05.65.07.98.03.42.06.83.08,1.25.02.29.03.59.04.88,0,.13,0,.25.02.38v.12c.02.67.04,1.34.05,2.02.02.39.02.77.02,1.16v56.23Z"/>
        </g>
      </g>
      <g id="mtg6" class="cls-11">
        <path d="M61.87,201.81h36.11v-39.78c0-1.52.01-2.94.03-4.29h-36.14v44.07Z"/>
        <path d="M262.39,115.31c-8.36-8.77-20.2-12.44-40.19-12.44-23.66,0-35.5,5.71-41.61,20.2-7.75-14.28-20.6-20.2-43.86-20.2-21.42,0-33.66,5.3-38.96,16.93h-1.84v-14.48h-34.07v44.92h36.48c.61-7.58,2.07-11.46,4.94-14.32,4.08-4.08,11.22-5.92,22.03-5.92s16.73,1.63,19.99,5.3c2.9,3.07,3.66,5.43,3.83,14.94h36.54c.62-7.27,2.08-11,4.92-14.12,3.88-4.28,10.61-6.12,21.42-6.12s16.73,1.63,20.4,5.3c2.93,2.93,3.68,4.7,3.96,14.94h36.18c-.34-19.88-2.56-27.15-10.15-34.93Z"/>
        <path d="M149.18,201.81h36.11v-39.78c0-1.52.01-2.95.04-4.29h-36.14v44.07Z"/>
        <rect x="236.49" y="157.74" width="36.11" height="44.07"/>
        <rect x="298.79" y="65.74" width="36.11" height="27.13"/>
        <rect x="298.79" y="157.74" width="36.11" height="44.07"/>
        <rect x="298.79" y="105.32" width="36.11" height="44.92"/>
        <path d="M349.91,201.81h36.11v-38.55c0-2,.01-3.83.04-5.51h-36.14v44.07Z"/>
        <path d="M470.27,114.91c-8.57-8.77-20.4-12.04-43.45-12.04s-34.48,4.69-41,17.14h-1.84v-14.69h-34.07v44.92h36.42c.54-7.52,1.88-10.67,4.99-13.92,4.28-4.49,11.42-6.32,24.68-6.32s20.4,1.43,24.28,5.3c3.13,2.96,4.13,5.8,4.4,14.94h36.13c-.39-20.36-2.69-27.12-10.54-35.34Z"/>
        <path d="M444.77,157.74c0,.07,0,.14,0,.21v43.86h36.11v-43.86c0-.07,0-.14,0-.21h-36.11Z"/>
        <path d="M596.08,172.43c-4.08,2.86-13.87,4.49-27.13,4.49-24.69,0-30.29-2.71-31.1-19.18h-36.18c.34,20.54,2.97,29.49,10.36,36.31,8.36,7.55,20.81,10.2,46.92,10.2s35.7-3.47,42.63-15.1h1.84v12.65h34.07v-44.07h-35.99c-.36,8.28-1.9,12.4-5.42,14.69Z"/>
        <path d="M601.38,118.17h-1.43c-6.94-12.24-15.3-15.5-40.6-15.5s-34.88,1.63-43.65,7.34c-9.83,6.49-13.78,17.53-14.06,40.23h36.12c.4-17.42,5.99-20.44,33.43-20.44,24.26,0,29.8,3.28,30.35,20.44h35.95v-84.5h-36.11v52.43Z"/>
        <polygon points="722 150.24 758.11 150.24 758.11 131.23 815.23 131.23 815.23 105.32 758.11 105.32 758.11 83.08 722 83.08 722 105.32 703.03 105.32 703.03 131.23 722 131.23 722 150.24"/>
        <path d="M785.45,173.66c-1.63,3.47-5.71,4.9-13.06,4.9-6.94,0-10.61-1.43-12.44-4.69-1.63-2.45-1.84-3.88-1.84-14.48v-1.63h-36.11v1.63c0,7.96,0,12.85.2,14.48.41,11.02,2.45,16.32,7.55,21.42,7.14,6.94,16.52,8.98,39.58,8.98,24.89,0,35.9-3.06,43.25-12.24,5.51-7.14,6.94-13.06,7.34-31.42h-33.05c0,10-.2,10.81-1.43,13.06Z"/>
        <path d="M834.81,201.81h36.11v-41.21c0-.99.01-1.93.03-2.86h-36.13v44.07Z"/>
        <path d="M954.97,114.7c-8.36-8.57-20.4-12.04-41.82-12.04-22.85,0-34.68,5.1-40.59,17.34h-1.63v-54.26h-36.11v84.5h36.52c1.62-16.77,8.57-20.44,30.19-20.44s27.19,3.33,27.86,20.44h36.16c-.3-19.39-2.78-27.56-10.57-35.54Z"/>
        <rect x="929.47" y="157.74" width="36.11" height="44.07"/>
        <path d="M995.56,195.28c8.77,6.53,22.03,8.98,49.98,8.98,51.61,0,64.87-6.53,67.52-33.25h-35.9c-1.43,8.57-5.71,10.2-28.76,10.2-13.06,0-20.6-1.22-24.48-4.08-3.47-2.65-4.49-5.92-4.49-15.71h94.25c.06-1.22.1-2.48.13-3.67h-130.46c.3,21.83,3.34,30.78,12.21,37.54Z"/>
        <path d="M1102.05,111.85c-8.77-7.14-20.2-9.18-52.83-9.18s-43.45,2.04-52.83,8.57c-9.71,6.8-12.76,15.82-13.03,39.01h130.53c-.14-20.9-3.44-31.41-11.83-38.4ZM1019.43,141.63c.41-13.46,6.12-16.52,30.39-16.52,14.28,0,21.62,1.43,24.89,4.9,2.24,2.24,2.65,4.08,2.86,11.63h-58.14Z"/>
        <path d="M1288.07,117.97h-1.63c-7.55-12.04-16.12-15.1-41.21-15.1-18.16,0-31.62,1.43-38.96,4.49-15.06,5.9-20.17,16.69-20.19,42.88h36.12c.28-16.94,6.02-20.24,33.24-20.24,10.61,0,18.77,1.02,23.05,2.86,5.48,2.54,7.38,6.79,7.53,17.38h36.12v-44.92h-34.07v12.65Z"/>
        <path d="M1280.93,168.56c-4.08,3.06-13.26,4.69-27.33,4.69-22.83,0-29.75-2.81-31.13-15.51h-36.28c.59,19,3.76,27.52,12.13,34.07,8.36,6.32,21.01,8.77,46.51,8.77,24.07,0,32.64-3.26,39.98-15.1h1.43v8.57c0,13.46-.61,16.52-4.08,20.4-4.28,4.9-11.22,6.32-30.19,6.32s-24.28-1.84-26.32-9.18l-.41-1.02h-36.72c1.02,11.63,4.08,18.97,10.61,24.68,9.18,7.96,21.62,10.61,52.22,10.61,22.85,0,36.51-1.43,47.12-5.1,9.59-3.26,17.34-10.81,20.6-19.99,2.86-7.96,3.06-10.61,3.06-26.72v-36.31h-36.33c-.5,5.72-1.91,8.63-4.88,10.81Z"/>
        <path d="M1412.74,102.67c-28.97,0-45.69,1.84-54.06,5.71-11.22,5.51-15.91,13.06-16.93,27.13h36.11c1.02-8.77,3.67-9.59,29.58-9.59,21.83,0,24.68,2.04,24.68,17.14v5.1h-1.63c-5.71-6.12-10.61-7.55-27.34-7.55-26.52,0-35.9.61-44.67,3.06-5.19,1.35-9.35,3.52-12.53,6.57h122.08v-6.57c0-17.54-2.04-24.89-8.16-31.42-8.16-8.16-15.5-9.59-47.12-9.59Z"/>
        <path d="M1337.87,174.27c0,22.85,10,29.99,42.02,29.99,23.46,0,32.64-.82,38.55-3.26,6.53-2.65,10.4-6.12,13.46-12.44h1.43v13.26h34.68v-44.07h-127.25c-1.95,4.46-2.9,9.93-2.9,16.53ZM1401.93,161.01c15.3,0,21.01.2,23.25,1.02,4.08,1.43,6.32,4.28,6.32,8.16,0,8.57-7.14,11.02-32.64,11.02-19.38,0-24.89-2.24-24.89-10s5.92-10.2,27.95-10.2Z"/>
        <path d="M1531.06,180.74c5.35,1.7,15.62,2.8,26.17,2.8,15.2,0,24.92-1.71,29.65-5.2,6.08-4.25,7.26-12.17,7.26-24.4,0-13.24-1.73-20.66-11.18-24.5l-.14-.05c-5.49-1.91-15.3-3.05-26.25-3.05-14.58,0-24.07,1.44-29.03,4.42-7.37,4.42-8.77,12.11-8.77,24.73,0,14.33,1.83,21.76,12.29,25.24ZM1530.63,135.91c2.71-1.62,9.41-3.56,25.94-3.56,10.11,0,19.37,1.03,24.21,2.69,5.19,2.13,7.37,5.27,7.37,18.91s-1.8,17.45-4.76,19.53c-2.06,1.52-8.2,4.07-26.15,4.07-9.83,0-19.62-1.01-24.32-2.51-5.66-1.89-8.14-4.31-8.14-19.54,0-13.67,1.89-17.21,5.86-19.59Z"/>
        <path d="M1618.88,107.23c-9.73-7.36-24.64-10.36-51.45-10.36-23.34,0-34.66,3.13-42.66,12.83v-52.94h-45.23v93.48h6V62.76h33.23v56.96h6.48l.87-1.47c7.16-12.07,16.04-15.37,41.3-15.37s39.36,2.73,47.83,9.14c9.4,7.15,12.12,16.76,12.12,42.82s-2.45,35.25-10.53,42.31c-7.99,7.17-21.98,10.09-48.31,10.09-28.24,0-37.37-3.07-44.41-14.93l-.87-1.47h-6.7v13.74h-31.01v-46.84h-6v52.84h43.01v-10.01c8.02,9.81,19.57,12.67,45.98,12.67,27.96,0,43.11-3.37,52.29-11.6,9.62-8.42,12.55-19.35,12.55-46.8s-3.38-39.16-14.49-47.61Z"/>
      </g>
    </g>
  </g>
</svg>